<svg xmlns="http://www.w3.org/2000/svg" xmlns:xlink="http://www.w3.org/1999/xlink" viewBox="0 0 1766.71 1534.73"><defs><style>.cls-1{isolation:isolate;}.cls-2{fill:#080029;}.cls-3{fill:#8961fa;}.cls-11,.cls-4,.cls-7,.cls-9{fill:#fff;}.cls-4{mix-blend-mode:soft-light;}.cls-5{fill:#ae86fb;}.cls-6{fill:#854cf4;}.cls-7{opacity:0.2;}.cls-8{opacity:0.68;}.cls-10{fill:url(#linear-gradient);}.cls-11{opacity:0.5;}.cls-12{fill:url(#linear-gradient-2);}.cls-13{fill:url(#linear-gradient-3);}.cls-14{fill:#817df4;}.cls-15{fill:url(#linear-gradient-4);}.cls-16{fill:#9195fa;}.cls-17{fill:#bdbffb;}.cls-18{opacity:0.78;}.cls-19{fill:#525ee8;}.cls-20{fill:#525ade;}.cls-21{fill:#292481;}.cls-22{fill:#39297a;}.cls-23{fill:#a4b8ed;}.cls-24{fill:#3a2760;}.cls-25{fill:#3a4cd2;}.cls-26{fill:#302872;}.cls-27{fill:#251ebd;}.cls-28{fill:#3b297a;}.cls-29{fill:#d38e46;}.cls-30{fill:#292281;}.cls-31{fill:#525ae8;}.cls-32{fill:#e49a38;}.cls-33{fill:#3c2760;}.cls-34{fill:#3a48d2;}.cls-35{fill:#322872;}.cls-36{fill:#a4b5ed;}.cls-37{fill:#f3ce8b;}.cls-38{fill:#f4aa3a;}.cls-39{fill:#32306d;}</style><linearGradient id="linear-gradient" x1="1183.3" y1="1032.81" x2="661.23" y2="456.36" gradientUnits="userSpaceOnUse"><stop offset="0" stop-color="#ffa68e"/><stop offset="1" stop-color="#fe8c62"/></linearGradient><linearGradient id="linear-gradient-2" x1="1015.36" y1="657.83" x2="953.24" y2="714.1" xlink:href="#linear-gradient"/><linearGradient id="linear-gradient-3" x1="775.16" y1="821.22" x2="853.87" y2="631.93" gradientUnits="userSpaceOnUse"><stop offset="0" stop-color="#794fff"/><stop offset="1" stop-color="#7e5ee2"/></linearGradient><linearGradient id="linear-gradient-4" x1="721.57" y1="864.35" x2="858.1" y2="864.35" gradientUnits="userSpaceOnUse"><stop offset="0" stop-color="#dadafe"/><stop offset="1" stop-color="#e9e9fd"/></linearGradient></defs><g class="cls-1"><g id="Layer_1" data-name="Layer 1"><path class="cls-2" d="M284,1470.73c378.23,478.71,1286.59,295,1392,28.19,36.57-92.57-17.83-209.57,71.07-375.3,59.38-110.72,112.9-113,131.09-180,48.67-179.15-253.92-457.76-554.56-590-272.77-120-770.18-218.94-1029,52.86-87.8,92.21-117.76,195.17-141,274.87C82.54,925.68,107.63,1247.47,284,1470.73Z" transform="translate(-116.64 -232.64)"/><path class="cls-3" d="M768.82,436.21a4.2,4.2,0,0,1,7.33-3.17c27.28,31,91.23,122.1,59.26,267.62C795.3,883.25,827.35,954.32,871.33,1000c0,0-63.93-25.6-98.8-98C686.92,724.44,776.41,508.1,768.82,436.21Z" transform="translate(-116.64 -232.64)"/><path class="cls-4" d="M786.12,496.08c1.79,20.92,3.17,41.87,3.77,62.83s.8,41.93.23,62.88-1.7,41.86-3.63,62.71-4.58,41.61-7.39,62.44-5.54,41.8-6.24,63.13,1.09,43,6.82,63.72c1.43,5.17,3,10.33,4.78,15.35s3.68,10,5.73,15A220.78,220.78,0,0,0,845,982.43a4.06,4.06,0,0,0,5.61-5.86h0c-3.69-3.64-7.34-7.31-10.8-11.14-1.77-1.88-3.45-3.84-5.16-5.77s-3.36-3.92-4.94-5.95a215.48,215.48,0,0,1-17.52-25.41,235.06,235.06,0,0,1-23.91-56.82,204.44,204.44,0,0,1-5.66-30.26,232.3,232.3,0,0,1-1.18-30.9c.52-20.72,3.16-41.5,5.71-62.35s4.91-41.83,6.44-62.87q1.18-15.78,1.8-31.59c.24-5.27.37-10.54.52-15.81s.15-10.54.18-15.81q.06-31.62-1.82-63.18c-1.36-21-3.28-42-6-62.86a1.09,1.09,0,0,0-2.17.24Z" transform="translate(-116.64 -232.64)"/><path class="cls-5" d="M741.76,1061.73a10.55,10.55,0,0,1-17.15,3.56c-29.61-28.84-106-117.95-93.16-260.07,10.81-120,5.26-186.12.66-216a6.62,6.62,0,0,1,11.21-5.69C693.28,633.21,843.09,809.91,741.76,1061.73Z" transform="translate(-116.64 -232.64)"/><path class="cls-4" d="M731.62,1061.44a3,3,0,0,1-.51.24,2.92,2.92,0,0,1-3.76-1.71c-.64-1.72-64.06-173.43-56.58-341a2.93,2.93,0,1,1,5.85.27c-7.43,166.32,55.57,337,56.21,338.66A2.93,2.93,0,0,1,731.62,1061.44Z" transform="translate(-116.64 -232.64)"/><ellipse class="cls-6" cx="1145.13" cy="899.48" rx="420.63" ry="454.03" transform="translate(79.65 1771.43) rotate(-87.49)"/><ellipse class="cls-7" cx="1003.91" cy="636.5" rx="356.27" ry="336.56"/><g class="cls-8"><path class="cls-4" d="M1261.12,901.51c-.11,74.19-5.2,148.53-18.27,221.67-3.31,18.27-7.15,36.45-11.72,54.46a524.11,524.11,0,0,1-16.36,53.29c-6.54,17.4-14.13,34.56-24.41,50.23-5.19,7.78-11.07,15.24-18.33,21.37a52,52,0,0,1-12,7.73,35.91,35.91,0,0,1-14,3.3,35.45,35.45,0,0,1-14.15-2.6,49.09,49.09,0,0,1-12.28-7.31c-7.43-5.94-13.44-13.31-18.71-21-10.47-15.57-18.16-32.69-24.77-50.06a512.76,512.76,0,0,1-16.53-53.24c-4.62-18-8.5-36.17-11.83-54.43-6.67-36.54-11.21-73.42-14.27-110.41s-4.57-74.11-4.76-111.22c-.09-18.56.42-37.11,1.08-55.65s1.71-37.07,3.08-55.58c2.74-37,6.84-73.92,12.93-110.54,3.06-18.31,6.63-36.53,10.92-54.6a523.89,523.89,0,0,1,15.49-53.5c3.12-8.76,6.52-17.42,10.41-25.88A187.83,187.83,0,0,1,1096,523c5.11-7.79,11-15.22,18.31-21.17a46.42,46.42,0,0,1,12.1-7.25,34.17,34.17,0,0,1,13.92-2.48,37,37,0,0,1,13.76,3.23,53.71,53.71,0,0,1,12,7.46c7.3,5.93,13.34,13.18,18.7,20.8,10.66,15.34,18.69,32.26,25.65,49.47A507.58,507.58,0,0,1,1228,625.88c5,17.9,9.14,36,12.77,54.2C1255.07,753,1260.91,827.31,1261.12,901.51Zm-5.49,0q.11-55.44-4.41-110.77a1068.38,1068.38,0,0,0-14.45-109.89c-3.42-18.16-7.39-36.22-12.12-54.08a506,506,0,0,0-16.9-52.72c-6.72-17.16-14.51-34-24.85-49.25-5.2-7.56-11.06-14.74-18.09-20.58a51.89,51.89,0,0,0-11.47-7.34,34.41,34.41,0,0,0-13.09-3.19,32.37,32.37,0,0,0-13.21,2.48,45,45,0,0,0-11.55,7.11c-7,5.83-12.71,13.17-17.66,20.88A187.29,187.29,0,0,0,1085,548.55c-3.76,8.41-7,17-10,25.77a524,524,0,0,0-14.82,53.35c-4.07,18-7.42,36.2-10.26,54.46-5.67,36.53-9.36,73.36-11.69,110.26s-3.17,73.89-3.1,110.86q-.15,55.44,3.89,110.8c2.76,36.86,7,73.62,13.35,110,3.18,18.2,6.9,36.3,11.35,54.22a508.37,508.37,0,0,0,16,53c6.4,17.26,13.89,34.23,24,49.52,5.09,7.58,10.89,14.77,17.91,20.47a46.13,46.13,0,0,0,11.46,7,31.56,31.56,0,0,0,13,2.46,32.86,32.86,0,0,0,12.83-3.14,48.56,48.56,0,0,0,11.22-7.37c6.87-5.89,12.54-13.17,17.54-20.82,10-15.41,17.33-32.42,23.66-49.7a523.17,523.17,0,0,0,15.81-53c4.4-17.93,8.07-36,11.22-54.25,6.3-36.41,10.49-73.18,13.28-110S1255.64,938.49,1255.63,901.51Z" transform="translate(-116.64 -232.64)"/><path class="cls-4" d="M1448.27,901.51a540.58,540.58,0,0,1-19.18,141.65c-13,46-32.63,90.18-59.26,129.88a374.45,374.45,0,0,1-45.27,55.43,317.28,317.28,0,0,1-55.71,44.85,268.88,268.88,0,0,1-65,29.73,243.14,243.14,0,0,1-141.36.06,268.85,268.85,0,0,1-65.06-29.68,318,318,0,0,1-55.79-44.82,374.42,374.42,0,0,1-45.35-55.41c-26.68-39.71-46.34-84-59.41-129.94A513.71,513.71,0,0,1,822.48,973a528.14,528.14,0,0,1,0-143A513.68,513.68,0,0,1,837,759.79c13.11-46,32.79-90.18,59.49-129.84a375.23,375.23,0,0,1,45.36-55.36,317.06,317.06,0,0,1,55.78-44.74,269.36,269.36,0,0,1,65-29.56,241.41,241.41,0,0,1,141.14,0,269.86,269.86,0,0,1,65,29.62,316.28,316.28,0,0,1,55.7,44.78,373.94,373.94,0,0,1,45.26,55.36C1396.3,669.76,1416,714,1429,759.9A540.69,540.69,0,0,1,1448.27,901.51Zm-6.29,0a535,535,0,0,0-18.42-140.11c-12.53-45.52-31.4-89.47-57.37-129A371.25,371.25,0,0,0,1322,577.14a309.37,309.37,0,0,0-54.73-44.86A264,264,0,0,0,1203,502.61a235.33,235.33,0,0,0-139.73.06,263.6,263.6,0,0,0-64.12,29.72,308.25,308.25,0,0,0-54.65,44.9,369.39,369.39,0,0,0-44.15,55.27c-25.92,39.52-44.75,83.45-57.22,129a518.75,518.75,0,0,0-13.76,69.4,540,540,0,0,0,.05,141.2,517,517,0,0,0,13.8,69.38c12.5,45.48,31.36,89.38,57.3,128.86a370.24,370.24,0,0,0,44.16,55.21,307.6,307.6,0,0,0,54.63,44.82,265,265,0,0,0,64.08,29.61,233.84,233.84,0,0,0,139.5.07,265.4,265.4,0,0,0,64.13-29.57,308.27,308.27,0,0,0,54.71-44.78A369.62,369.62,0,0,0,1366,1170.5c26-39.48,44.9-83.4,57.46-128.9A534.79,534.79,0,0,0,1442,901.51Z" transform="translate(-116.64 -232.64)"/><path class="cls-4" d="M765.47,738.46l94.63-.77,94.63-.43,189.26-.35,189.26.39,94.63.47,94.62.83a.27.27,0,0,1,.28.28.28.28,0,0,1-.28.27l-94.62.83-94.63.47-189.26.38-189.26-.35-94.63-.43-94.63-.76a.42.42,0,0,1,0-.83Z" transform="translate(-116.64 -232.64)"/><path class="cls-4" d="M875.25,580c22.4-.35,44.79-.5,67.19-.76l67.18-.43c22.4-.19,44.79-.17,67.19-.23l67.18-.12,134.37.38,67.18.47c22.39.29,44.79.45,67.18.83a.28.28,0,0,1,.28.28.3.3,0,0,1-.28.28c-22.39.38-44.79.54-67.18.82l-67.18.47-134.37.39-67.18-.13c-22.4-.06-44.79,0-67.19-.22l-67.18-.43c-22.4-.26-44.79-.41-67.19-.77a.41.41,0,0,1-.4-.42A.42.42,0,0,1,875.25,580Z" transform="translate(-116.64 -232.64)"/><path class="cls-4" d="M732.59,897l102.85-.76,102.85-.43,205.7-.35,205.7.38,102.85.48,102.85.82a.27.27,0,0,1,.27.28.28.28,0,0,1-.27.28l-102.85.82-102.85.47-205.7.39L938.29,899l-102.85-.44-102.85-.76a.41.41,0,0,1-.41-.41A.42.42,0,0,1,732.59,897Z" transform="translate(-116.64 -232.64)"/><path class="cls-4" d="M765.47,1055.45l94.63-.76,94.63-.44,189.26-.35,189.26.39,94.63.47,94.62.83a.27.27,0,0,1,.28.28.28.28,0,0,1-.28.27l-94.62.83-94.63.47-189.26.38-189.26-.34L860.1,1057l-94.63-.76a.42.42,0,0,1,0-.83Z" transform="translate(-116.64 -232.64)"/><path class="cls-4" d="M1426.26,1215.81H888.79a1.45,1.45,0,1,1,0-2.9h537.47a1.45,1.45,0,1,1,0,2.9Z" transform="translate(-116.64 -232.64)"/></g><path class="cls-9" d="M1032.79,699.1a1.75,1.75,0,0,1-1-3.2c1.61-1.1,3.21-2.21,4.78-3.33a1.76,1.76,0,1,1,2,2.87q-2.38,1.68-4.83,3.35A1.73,1.73,0,0,1,1032.79,699.1Z" transform="translate(-116.64 -232.64)"/><path class="cls-9" d="M1046.53,689.22a1.75,1.75,0,0,1-1.06-3.15c2.93-2.23,5.85-4.52,8.65-6.8a1.76,1.76,0,1,1,2.22,2.72c-2.84,2.31-5.78,4.62-8.75,6.87A1.76,1.76,0,0,1,1046.53,689.22Zm17.15-14a1.75,1.75,0,0,1-1.15-3.07c2.77-2.45,5.5-4.94,8.11-7.43a1.75,1.75,0,1,1,2.42,2.54c-2.64,2.52-5.41,5.05-8.22,7.52A1.77,1.77,0,0,1,1063.68,675.24Zm16-15.27a1.75,1.75,0,0,1-1.22-.5,1.73,1.73,0,0,1,0-2.47c2.56-2.66,5.06-5.38,7.44-8.09a1.75,1.75,0,1,1,2.63,2.32c-2.41,2.75-5,5.5-7.55,8.2A1.73,1.73,0,0,1,1079.7,660Zm14.6-16.63a1.78,1.78,0,0,1-1.09-.38,1.76,1.76,0,0,1-.28-2.47c2.29-2.87,4.51-5.81,6.62-8.75a1.75,1.75,0,1,1,2.85,2c-2.14,3-4.4,6-6.73,8.9A1.74,1.74,0,0,1,1094.3,643.34Zm12.87-18a1.72,1.72,0,0,1-.94-.28,1.75,1.75,0,0,1-.54-2.42c2-3.09,3.87-6.25,5.64-9.42a1.76,1.76,0,1,1,3.06,1.72c-1.81,3.22-3.74,6.44-5.74,9.58A1.74,1.74,0,0,1,1107.17,625.34ZM1118,606a1.77,1.77,0,0,1-.77-.18,1.74,1.74,0,0,1-.8-2.34c1.59-3.28,3.11-6.65,4.5-10a1.76,1.76,0,1,1,3.24,1.35c-1.42,3.41-3,6.84-4.59,10.18A1.76,1.76,0,0,1,1118,606Zm8.48-20.44a2,2,0,0,1-.58-.09,1.76,1.76,0,0,1-1.08-2.23c1.19-3.43,2.29-6.95,3.27-10.46a1.75,1.75,0,0,1,3.38.94c-1,3.58-2.13,7.17-3.33,10.66A1.76,1.76,0,0,1,1126.47,585.59Z" transform="translate(-116.64 -232.64)"/><path class="cls-9" d="M1132.43,564.27a1.55,1.55,0,0,1-.37,0,1.75,1.75,0,0,1-1.35-2.08c.41-1.89.79-3.8,1.14-5.68a1.75,1.75,0,0,1,3.45.63c-.36,1.92-.74,3.87-1.16,5.79A1.74,1.74,0,0,1,1132.43,564.27Z" transform="translate(-116.64 -232.64)"/><path class="cls-9" d="M1147.2,570.05a1.72,1.72,0,0,1-1.23-.5c-1.39-1.37-2.78-2.75-4.16-4.16a1.75,1.75,0,1,1,2.5-2.46c1.37,1.39,2.74,2.77,4.12,4.12a1.75,1.75,0,0,1-1.23,3Z" transform="translate(-116.64 -232.64)"/><path class="cls-9" d="M1282.31,639.45h-.17c-3.69-.36-7.42-.83-11.08-1.4a1.75,1.75,0,1,1,.54-3.46c3.59.56,7.25,1,10.87,1.36a1.75,1.75,0,0,1-.16,3.5ZM1260.45,636a1.55,1.55,0,0,1-.37,0c-3.61-.79-7.26-1.71-10.84-2.72a1.75,1.75,0,0,1,1-3.37c3.52,1,7.1,1.89,10.64,2.66a1.76,1.76,0,0,1-.38,3.47Zm-21.29-6a1.69,1.69,0,0,1-.58-.1c-3.47-1.2-7-2.53-10.44-3.95a1.76,1.76,0,0,1,1.33-3.25c3.39,1.4,6.85,2.71,10.26,3.89a1.75,1.75,0,0,1-.57,3.41Zm-20.49-8.4a1.82,1.82,0,0,1-.75-.17c-3.32-1.58-6.66-3.28-10-5.05a1.76,1.76,0,0,1,1.67-3.09c3.23,1.75,6.52,3.42,9.79,5a1.76,1.76,0,0,1-.76,3.34Zm-19.47-10.51a1.79,1.79,0,0,1-.91-.25c-3.13-1.89-6.3-3.91-9.4-6a1.76,1.76,0,0,1,1.95-2.92c3.06,2,6.18,4,9.27,5.9a1.75,1.75,0,0,1-.91,3.25Zm-18.4-12.29a1.81,1.81,0,0,1-1-.33c-3-2.17-5.93-4.44-8.85-6.77a1.75,1.75,0,1,1,2.19-2.74c2.88,2.29,5.82,4.54,8.74,6.68a1.75,1.75,0,0,1,.37,2.45A1.72,1.72,0,0,1,1180.8,598.82Zm-17.32-13.77a1.79,1.79,0,0,1-1.15-.42c-2.76-2.38-5.55-4.87-8.31-7.41a1.75,1.75,0,1,1,2.38-2.57c2.72,2.51,5.49,5,8.22,7.31a1.76,1.76,0,0,1-1.14,3.09Z" transform="translate(-116.64 -232.64)"/><path class="cls-9" d="M1299.21,640.28h0c-2,0-3.94,0-5.9-.11a1.75,1.75,0,1,1,.13-3.5c1.92.06,3.87.1,5.78.11a1.75,1.75,0,1,1,0,3.5Z" transform="translate(-116.64 -232.64)"/><path class="cls-9" d="M1299.13,640a1.76,1.76,0,0,1-1.59-1c-.83-1.76-1.66-3.54-2.47-5.32a1.75,1.75,0,1,1,3.18-1.47q1.23,2.67,2.46,5.29a1.74,1.74,0,0,1-1.58,2.5Z" transform="translate(-116.64 -232.64)"/><path class="cls-9" d="M1456.31,808.75a1.77,1.77,0,0,1-.67-.13c-3.65-1.5-7.31-3.12-10.88-4.81a1.76,1.76,0,1,1,1.51-3.17c3.51,1.66,7.11,3.25,10.71,4.73a1.76,1.76,0,0,1-.67,3.38ZM1435,798.65a1.79,1.79,0,0,1-.83-.21c-3.46-1.86-6.93-3.85-10.33-5.91a1.75,1.75,0,0,1,1.82-3c3.35,2,6.77,4,10.17,5.82a1.75,1.75,0,0,1,.72,2.38A1.77,1.77,0,0,1,1435,798.65Zm-20.19-12.23a1.76,1.76,0,0,1-1-.3c-3.25-2.2-6.51-4.52-9.69-6.89a1.76,1.76,0,0,1-.35-2.46,1.74,1.74,0,0,1,2.45-.35c3.13,2.34,6.35,4.62,9.55,6.79a1.76,1.76,0,0,1-1,3.21Zm-18.9-14.13a1.77,1.77,0,0,1-1.12-.4c-3-2.49-6-5.1-9-7.75a1.76,1.76,0,0,1,2.35-2.61c2.91,2.62,5.9,5.19,8.88,7.65a1.75,1.75,0,0,1-1.11,3.11Zm-17.55-15.78a1.78,1.78,0,0,1-1.23-.5c-2.78-2.73-5.58-5.59-8.31-8.48a1.75,1.75,0,0,1,2.55-2.41c2.7,2.86,5.46,5.68,8.22,8.38a1.75,1.75,0,0,1,0,2.48A1.73,1.73,0,0,1,1378.34,756.51Zm-16.2-17.17a1.77,1.77,0,0,1-1.32-.6c-2.57-3-5.14-6-7.64-9.08a1.75,1.75,0,1,1,2.72-2.21c2.48,3,5,6.07,7.56,9a1.76,1.76,0,0,1-1.32,2.91ZM1347.26,721a1.74,1.74,0,0,1-1.4-.7c-2.36-3.11-4.72-6.33-7-9.56a1.75,1.75,0,1,1,2.86-2c2.27,3.2,4.61,6.39,6.94,9.48a1.76,1.76,0,0,1-1.39,2.81Zm-13.66-19.26a1.74,1.74,0,0,1-1.46-.78c-2.15-3.24-4.31-6.59-6.42-10a1.76,1.76,0,0,1,3-1.86c2.09,3.35,4.23,6.68,6.36,9.89a1.75,1.75,0,0,1-.49,2.43A1.72,1.72,0,0,1,1333.6,701.76Zm-12.51-20a1.76,1.76,0,0,1-1.51-.86c-2-3.36-3.95-6.82-5.88-10.29a1.75,1.75,0,1,1,3.07-1.7c1.91,3.44,3.87,6.88,5.83,10.21a1.76,1.76,0,0,1-.62,2.4A1.8,1.8,0,0,1,1321.09,681.74Zm-11.46-20.64a1.74,1.74,0,0,1-1.55-.94c-1.82-3.46-3.63-7-5.39-10.55a1.75,1.75,0,0,1,3.14-1.56c1.75,3.51,3.55,7,5.35,10.48a1.75,1.75,0,0,1-.74,2.37A1.68,1.68,0,0,1,1309.63,661.1Z" transform="translate(-116.64 -232.64)"/><path class="cls-9" d="M1472.93,814.83a1.73,1.73,0,0,1-.54-.08q-2.81-.9-5.58-1.88a1.75,1.75,0,0,1,1.16-3.31q2.74,1,5.5,1.85a1.75,1.75,0,0,1-.54,3.42Z" transform="translate(-116.64 -232.64)"/><path class="cls-9" d="M1124.28,467.56a32.65,32.65,0,0,0-32.65,32.66c0,11.69,13.71,38.88,23.36,56.57a10.58,10.58,0,0,0,18.58,0c9.65-17.69,23.37-44.88,23.37-56.57A32.66,32.66,0,0,0,1124.28,467.56Zm0,50.19a17.53,17.53,0,1,1,17.54-17.53A17.53,17.53,0,0,1,1124.28,517.75Z" transform="translate(-116.64 -232.64)"/><path class="cls-9" d="M1304.75,529a41.12,41.12,0,0,0-41.12,41.12c0,14.72,17.26,48.95,29.42,71.23a13.32,13.32,0,0,0,23.39,0c12.16-22.28,29.42-56.51,29.42-71.23A41.12,41.12,0,0,0,1304.75,529Zm0,63.2a22.08,22.08,0,1,1,22.07-22.08A22.08,22.08,0,0,1,1304.75,592.17Z" transform="translate(-116.64 -232.64)"/><path class="cls-9" d="M1033.87,607.93A33.86,33.86,0,0,0,1000,641.8c0,12.12,14.22,40.31,24.23,58.66a11,11,0,0,0,19.27,0c10-18.35,24.23-46.54,24.23-58.66A33.86,33.86,0,0,0,1033.87,607.93Zm0,52.05a18.19,18.19,0,1,1,18.18-18.18A18.18,18.18,0,0,1,1033.87,660Z" transform="translate(-116.64 -232.64)"/><path class="cls-9" d="M1487,743.5a33.86,33.86,0,0,0-33.86,33.86c0,12.12,14.22,40.32,24.23,58.66a11,11,0,0,0,19.26,0c10-18.34,24.24-46.54,24.24-58.66A33.87,33.87,0,0,0,1487,743.5Zm0,52a18.18,18.18,0,1,1,18.18-18.18A18.18,18.18,0,0,1,1487,795.54Z" transform="translate(-116.64 -232.64)"/><rect class="cls-10" x="578.58" y="498.04" width="422.69" height="200.86" rx="15.68"/><rect class="cls-11" x="588.12" y="504.65" width="402.08" height="185.58" rx="15.68"/><path class="cls-12" d="M858.1,869.46c26.44-36.16,11.59-93.92-27.91-113.13l-37.07,69.16Z" transform="translate(-116.64 -232.64)"/><path class="cls-13" d="M830.19,756.33a79.06,79.06,0,0,0-52.89-7.7l15.82,76.86Z" transform="translate(-116.64 -232.64)"/><path class="cls-14" d="M777.3,748.63a78.42,78.42,0,0,0-44.45,26.64l60.27,50.22Z" transform="translate(-116.64 -232.64)"/><path class="cls-15" d="M793.12,825.49l-71.55,32.22c21.46,54.6,106,61.93,136.53,11.75Z" transform="translate(-116.64 -232.64)"/><path class="cls-16" d="M732.85,775.27a78.47,78.47,0,0,0-12.17,20.06c27.77,10.87,72.44,30.16,72.44,30.16Z" transform="translate(-116.64 -232.64)"/><path class="cls-17" d="M720.68,795.33c-8.27,19-7.9,43.65.89,62.38l71.55-32.22S748.45,806.2,720.68,795.33Z" transform="translate(-116.64 -232.64)"/><g class="cls-18"><path class="cls-9" d="M968.17,776H896.56c-7-.07-7,8.45,0,8.37h71.61C975.19,784.48,975.22,776,968.17,776Z" transform="translate(-116.64 -232.64)"/><path class="cls-9" d="M968.17,794.56H896.56c-7-.07-7,8.45,0,8.37h71.61C975.19,803,975.22,794.49,968.17,794.56Z" transform="translate(-116.64 -232.64)"/><path class="cls-9" d="M968.17,868.68H896.56c-7-.07-7,8.45,0,8.37h71.61C975.19,877.13,975.22,868.61,968.17,868.68Z" transform="translate(-116.64 -232.64)"/><path class="cls-9" d="M968.17,850.15H896.56c-7-.07-7,8.45,0,8.37h71.61C975.19,858.6,975.22,850.08,968.17,850.15Z" transform="translate(-116.64 -232.64)"/><path class="cls-9" d="M968.17,831.62H896.56c-7-.07-7,8.45,0,8.37h71.61C975.19,840.07,975.22,831.55,968.17,831.62Z" transform="translate(-116.64 -232.64)"/></g><g class="cls-18"><path class="cls-9" d="M1085.35,776.43h-71.61c-7-.08-7,8.44,0,8.37h71.61C1092.37,784.87,1092.4,776.35,1085.35,776.43Z" transform="translate(-116.64 -232.64)"/><path class="cls-9" d="M1085.35,795h-71.61c-7-.08-7,8.44,0,8.37h71.61C1092.37,803.4,1092.4,794.88,1085.35,795Z" transform="translate(-116.64 -232.64)"/><path class="cls-9" d="M1085.35,869.07h-71.61c-7-.07-7,8.45,0,8.37h71.61C1092.37,877.52,1092.4,869,1085.35,869.07Z" transform="translate(-116.64 -232.64)"/><path class="cls-9" d="M1085.35,850.54h-71.61c-7-.07-7,8.45,0,8.37h71.61C1092.37,859,1092.4,850.47,1085.35,850.54Z" transform="translate(-116.64 -232.64)"/><path class="cls-9" d="M1085.35,832h-71.61c-7-.08-7,8.44,0,8.36h71.61C1092.37,840.46,1092.4,831.94,1085.35,832Z" transform="translate(-116.64 -232.64)"/></g><path class="cls-19" d="M434.31,1092.35a44.15,44.15,0,0,1-9.3-13.65,42.34,42.34,0,0,1,29.3-58.65,44.17,44.17,0,0,1,10.88-1.21C473.67,1067.27,434.31,1092.35,434.31,1092.35Z" transform="translate(-116.64 -232.64)"/><path class="cls-20" d="M434.31,1092.35a44.15,44.15,0,0,1-9.3-13.65c4.94-8.63,9.91-17.81,14.81-27.55,5.39-10.73,10.2-21.13,14.49-31.1a44.17,44.17,0,0,1,10.88-1.21Z" transform="translate(-116.64 -232.64)"/><path class="cls-19" d="M673.56,1141.16c-4.37,60.51-143.11,80.5-208,43.93-18-10.16-30.36-24.7-32.53-43.93-10-88.48,48.6-169.49,115.9-169.49,24.4,0,53.05,9.34,76.77,30C656.11,1028.17,678.46,1073.26,673.56,1141.16Z" transform="translate(-116.64 -232.64)"/><path class="cls-19" d="M430.37,1050.06c-.49-.27-12.2-6.66-21.39-21.62-8.4-13.68-16.18-37.45-5.53-72.94l6.26,1.88c-7.94,26.48-6.37,49.14,4.67,67.34,8.24,13.58,19,19.51,19.09,19.57Z" transform="translate(-116.64 -232.64)"/><circle class="cls-21" cx="292.43" cy="716.32" r="15.23"/><path class="cls-21" d="M637.55,1087.71c0,12.14-13.33,19.62-30.51,24.06-18.09,4.68-40.46,6-56,5.85-22.29-.21-65.29-4.08-80.8-18.21-3.63-3.31-5.76-7.18-5.76-11.7A46.89,46.89,0,0,1,478.79,1054a49.56,49.56,0,0,1,34.63-13.94h75.16a49.39,49.39,0,0,1,38.67,18.4A46.62,46.62,0,0,1,637.55,1087.71Z" transform="translate(-116.64 -232.64)"/><path class="cls-22" d="M637.55,1087.71c0,12.14-13.33,19.62-30.51,24.06-18.09,4.68-40.46,6-56,5.85-22.29-.21-65.29-4.08-80.8-18.21,44.16-1.32,119.21-8.57,157-40.93A46.62,46.62,0,0,1,637.55,1087.71Z" transform="translate(-116.64 -232.64)"/><path class="cls-20" d="M673.56,1141.16c-4.37,60.51-143.11,80.5-208,43.93,39.65,6.58,157.68,21,178.92-35.84,18.26-48.9-4.32-114.15-18.78-147.56C656.11,1028.17,678.46,1073.26,673.56,1141.16Z" transform="translate(-116.64 -232.64)"/><path class="cls-23" d="M471.39,1031.21c3.58,4.73,25.63-5.17,40.43-16.06,14.19-10.44,28.68-26.91,25.48-31.57-2.84-4.14-19.12,1.76-29.36,7.2C485,1003,467.48,1026.06,471.39,1031.21Z" transform="translate(-116.64 -232.64)"/><path class="cls-23" d="M439.26,1125.37c.53,16.17,10.41,31.52,14.4,30.47,4.2-1.1,2.49-20.41.56-31-.56-3-4-21.68-8.31-21.6C442.48,1103.28,438.92,1114.9,439.26,1125.37Z" transform="translate(-116.64 -232.64)"/><path class="cls-24" d="M622.19,1077.47a21.91,21.91,0,1,1-1.93-9A21.65,21.65,0,0,1,622.19,1077.47Z" transform="translate(-116.64 -232.64)"/><path class="cls-25" d="M600.3,1055.6a21.87,21.87,0,1,1-21.88,21.87,21.86,21.86,0,0,1,21.88-21.87Zm0-3.74a25.62,25.62,0,1,0,25.61,25.61,25.24,25.24,0,0,0-2.25-10.49,25.62,25.62,0,0,0-23.36-15.12Z" transform="translate(-116.64 -232.64)"/><path class="cls-26" d="M620.26,1068.45c-8.17,19.75-28.44,19.19-40.35,16.89a21.88,21.88,0,0,1,40.35-16.89Z" transform="translate(-116.64 -232.64)"/><circle class="cls-23" cx="475.44" cy="837.57" r="7.26"/><path class="cls-23" d="M617.46,1081.72c1.19.8-.43,8.42-5.84,11.34-4.81,2.59-11.19.69-11.34-.71-.1-1,3.2-1.32,8.72-4.66C614.82,1084.17,616.64,1081.16,617.46,1081.72Z" transform="translate(-116.64 -232.64)"/><path class="cls-24" d="M525.13,1077.47a21.88,21.88,0,1,1-1.92-9A21.61,21.61,0,0,1,525.13,1077.47Z" transform="translate(-116.64 -232.64)"/><path class="cls-25" d="M503.25,1055.6a21.84,21.84,0,0,1,20,12.92,21.61,21.61,0,0,1,1.92,9,21.88,21.88,0,1,1-21.88-21.87Zm0-3.74a25.62,25.62,0,1,0,25.61,25.61,25.24,25.24,0,0,0-2.25-10.49,25.62,25.62,0,0,0-23.36-15.12Z" transform="translate(-116.64 -232.64)"/><path class="cls-26" d="M523.2,1068.45c-8.16,19.75-28.43,19.18-40.34,16.89a21.5,21.5,0,0,1-1.46-7.8,21.87,21.87,0,0,1,41.8-9.09Z" transform="translate(-116.64 -232.64)"/><circle class="cls-23" cx="378.39" cy="837.57" r="7.26"/><path class="cls-23" d="M520.41,1081.72c1.19.8-.43,8.42-5.84,11.33-4.81,2.59-11.19.7-11.34-.7-.11-1,3.2-1.32,8.72-4.66C517.77,1084.16,519.58,1081.16,520.41,1081.72Z" transform="translate(-116.64 -232.64)"/><path class="cls-27" d="M557.52,1045.06c.21,1.45-9.62,4.88-19.8,5.82-16.52,1.52-31.66-3.71-31.44-5.54.1-.84,10.55-.94,31.44-1.11C554.5,1044.09,557.41,1044.29,557.52,1045.06Z" transform="translate(-116.64 -232.64)"/><circle class="cls-27" cx="290.28" cy="712.24" r="8.17"/><path class="cls-19" d="M664.82,1279.47c0,61.07-42.85,132.81-110.92,132.81-42.19,0-76.9-25.82-97.19-60.35-12.48-21.2-19.52-45.68-19.52-69.48,0-62.57,68.29-59.59,111.57-59.59,47.46,0,103.8-3.63,114.31,40.57A68.41,68.41,0,0,1,664.82,1279.47Z" transform="translate(-116.64 -232.64)"/><path class="cls-20" d="M664.82,1279.47c0,61.07-42.85,132.81-110.92,132.81-42.19,0-76.9-25.82-97.19-60.35,42.27,19.9,162.7,61.12,206.36-88.5A68.41,68.41,0,0,1,664.82,1279.47Z" transform="translate(-116.64 -232.64)"/><path class="cls-23" d="M460.76,1258.19c-8.84,14.42-2.59,34.94,12.6,43,16.05,8.51,37.88.88,43.85-16,5.67-16.08-5.26-34.1-20.91-39.15C483.75,1241.94,468.11,1246.2,460.76,1258.19Z" transform="translate(-116.64 -232.64)"/><path class="cls-19" d="M413.83,1240.69c13.56,6.45,7.48,22.59-7.83,42.67-18.3,24-69.74,52.29-102.18,36.68h0a39.25,39.25,0,0,1-8.35-5.39c-31.15-26.18,83.44-77.07,100.35-77C403.81,1237.65,409.72,1238.72,413.83,1240.69Z" transform="translate(-116.64 -232.64)"/><path class="cls-20" d="M413.83,1240.69c13.56,6.45,7.48,22.59-7.83,42.67-18.3,24-69.74,52.29-102.18,36.68C335.93,1314.89,389.46,1297.71,413.83,1240.69Z" transform="translate(-116.64 -232.64)"/><path class="cls-23" d="M317.39,1282.26c8.31-4.77,22.8-11.37,24.65-8.63s-9.35,15.41-23.26,22.57c-9.49,4.9-22,8.15-23.38,5.52C293.81,1298.74,306.54,1288.49,317.39,1282.26Z" transform="translate(-116.64 -232.64)"/><path class="cls-19" d="M683,1261.16c3.32,14.65,20.4,12.27,43.35,1.75,27.42-12.58,66.35-56.53,58.26-91.61h0a39.72,39.72,0,0,0-3.42-9.33c-18.69-36.15-93.54,64.45-97.21,80.94C682.24,1250.72,682,1256.72,683,1261.16Z" transform="translate(-116.64 -232.64)"/><path class="cls-20" d="M683,1261.16c3.32,14.65,20.4,12.27,43.35,1.75,27.42-12.58,66.35-56.53,58.26-91.61C772.53,1201.49,744,1249.93,683,1261.16Z" transform="translate(-116.64 -232.64)"/><path class="cls-23" d="M744.77,1176.22c-6.49,7.06-16.11,19.75-13.85,22.16s17.09-5.73,27.14-17.73c6.87-8.18,12.79-19.65,10.53-21.6C766,1156.84,753.23,1167,744.77,1176.22Z" transform="translate(-116.64 -232.64)"/><path class="cls-28" d="M502.3,1128.46c3.9,2.1,7.83,4,11.82,5.63a124.3,124.3,0,0,0,12.1,4.38,93.93,93.93,0,0,0,24.85,4.18,82.93,82.93,0,0,0,12.49-.73,87.58,87.58,0,0,0,12.28-2.73,118.41,118.41,0,0,0,23.51-10.73A64.91,64.91,0,0,1,577.64,1144a67.68,67.68,0,0,1-13.06,4c-1.12.23-2.26.35-3.39.53s-2.27.29-3.41.38c-2.28.22-4.57.22-6.86.23a72.29,72.29,0,0,1-26.47-5.91,76.58,76.58,0,0,1-11.84-6.37,63.16,63.16,0,0,1-5.4-3.94A46.62,46.62,0,0,1,502.3,1128.46Z" transform="translate(-116.64 -232.64)"/><path class="cls-29" d="M827.8,1214.22h0a14.85,14.85,0,0,1-20.28,5.43l-123-71a14.85,14.85,0,0,1-5.43-20.28h0a14.83,14.83,0,0,1,20.27-5.43l123,71A14.86,14.86,0,0,1,827.8,1214.22Z" transform="translate(-116.64 -232.64)"/><path class="cls-28" d="M712.46,1074.15a94.6,94.6,0,1,1-16.06-52.77A94.63,94.63,0,0,1,712.46,1074.15Z" transform="translate(-116.64 -232.64)"/><path class="cls-30" d="M700.61,1020.81a132.72,132.72,0,0,1-21.15,27.2c-34.71,34.4-84,46.3-120.14,50.15a296.9,296.9,0,0,1-32.85,1.71,96.95,96.95,0,0,1,174.14-79.06Z" transform="translate(-116.64 -232.64)"/><path class="cls-31" d="M560.76,1122.65s51.6,14.4,111.42,0C672.18,1122.65,629.35,1178,560.76,1122.65Z" transform="translate(-116.64 -232.64)"/><path class="cls-32" d="M700.61,1018.55a99.73,99.73,0,1,0,16.92,55.6A99.63,99.63,0,0,0,700.61,1018.55Zm-82.78,122.59a67,67,0,1,1,67-67A67.08,67.08,0,0,1,617.83,1141.14Z" transform="translate(-116.64 -232.64)"/><path class="cls-33" d="M660.44,1074.15a42.64,42.64,0,1,1-3.74-17.43A42.12,42.12,0,0,1,660.44,1074.15Z" transform="translate(-116.64 -232.64)"/><path class="cls-34" d="M617.84,1031.54a42.55,42.55,0,0,1,38.86,25.18,42.12,42.12,0,0,1,3.74,17.43,42.61,42.61,0,1,1-42.6-42.61Zm0-7.28a49.89,49.89,0,1,0,49.88,49.89,49.27,49.27,0,0,0-4.39-20.43,49.89,49.89,0,0,0-45.49-29.46Z" transform="translate(-116.64 -232.64)"/><path class="cls-35" d="M656.66,1056.63c-15.9,38.45-55.35,37.3-78.55,32.83a42.58,42.58,0,0,1,78.55-32.83Z" transform="translate(-116.64 -232.64)"/><circle class="cls-36" cx="601.83" cy="1060" r="14.14" transform="translate(-657.53 1251.63) rotate(-80.78)"/><path class="cls-36" d="M651.24,1082.42c2.32,1.55-.83,16.39-11.38,22.07-9.37,5-21.78,1.35-22.07-1.38-.21-2,6.22-2.56,17-9.07C646.1,1087.18,649.63,1081.33,651.24,1082.42Z" transform="translate(-116.64 -232.64)"/><path class="cls-37" d="M531.9,1091.28a3.74,3.74,0,0,1-3.72-3.37c0-.18,0-.43-.08-.74-3.79-32.41,6.33-61.94,27.77-81,28.66-25.48,63-24.15,72.79-23.14a3.74,3.74,0,0,1-.77,7.44c-9.06-.94-40.68-2.16-67,21.28-26.82,23.85-27.37,57-25.32,74.55.05.37.08.66.1.87a3.74,3.74,0,0,1-3.35,4.09Z" transform="translate(-116.64 -232.64)"/><path class="cls-37" d="M670,1140.47a3.74,3.74,0,0,1-2.57-6.46c21-19.84,30.43-47.81,25.23-74.82a3.74,3.74,0,1,1,7.34-1.41c5.69,29.53-4.56,60.06-27.43,81.67A3.76,3.76,0,0,1,670,1140.47Z" transform="translate(-116.64 -232.64)"/><path class="cls-37" d="M617.71,1156.07a87.5,87.5,0,0,1-19.2-2.06,3.74,3.74,0,0,1,1.68-7.29c14.86,3.41,36.79,2.63,52.27-6.79a3.74,3.74,0,1,1,3.89,6.38C644.53,1153.51,630.36,1156.07,617.71,1156.07Z" transform="translate(-116.64 -232.64)"/><path class="cls-38" d="M741.42,1162a3.24,3.24,0,0,1-1.68-.47l-36-21.54a3.27,3.27,0,1,1,3.36-5.61l36,21.54a3.27,3.27,0,0,1-1.68,6.08Z" transform="translate(-116.64 -232.64)"/><ellipse class="cls-39" cx="440.88" cy="1238.27" rx="118.26" ry="30.66"/></g></g></svg>