<svg id="Layer_1" data-name="Layer 1" xmlns="http://www.w3.org/2000/svg" viewBox="0 0 1776.44 1543.18"><defs><style>.cls-1{fill:#080029;}.cls-2{fill:#854cf4;}.cls-3{fill:#d8ffbd;}.cls-4{fill:#e1e1e1;}.cls-5{fill:#1a2e35;}.cls-6{fill:#d6c5ff;}.cls-7{fill:#375a64;}.cls-8{fill:#8d09ec;}.cls-13,.cls-9{fill:#fff;}.cls-10,.cls-9{opacity:0.3;}.cls-11{fill:#26083f;}.cls-12{fill:#ac94f7;}.cls-14{fill:#5d6ce6;}.cls-15{fill:#606adc;}.cls-16{fill:#afc2eb;}.cls-17{fill:#2c2a80;}.cls-18{fill:#3b337a;}.cls-19{fill:#4a3960;}.cls-20{fill:#475bd0;}.cls-21{fill:#342f72;}.cls-22{fill:#2a28bb;}.cls-23{fill:#ae94ff;}.cls-24{fill:#8250c9;}.cls-25{fill:#8770e5;}.cls-26{fill:#57348f;}.cls-27{fill:#462b77;}.cls-28{fill:#6c4fa0;}.cls-29{fill:#7151af;}.cls-30{fill:#60409b;}.cls-31{fill:#7052aa;}.cls-32{fill:#482b7f;}.cls-33{fill:#5c3c99;}.cls-34{fill:#6b4baa;}</style></defs><path class="cls-1" d="M285.73,1630.43c380.31,481.35,1293.68,296.63,1399.65,28.35,36.77-93.08-17.93-210.73,71.46-377.37,59.71-111.33,113.52-113.65,131.82-181,48.93-180.12-255.33-460.27-557.62-593.23C1056.76,386.54,556.62,287,296.36,560.32,208.07,653,178,756.57,154.63,836.71,83.14,1082.38,108.36,1405.94,285.73,1630.43Z" transform="translate(-117.42 -385.52)"/><path class="cls-2" d="M1085,1003.18v82.38c0,14.33,12.08,26.41,27,26.41h295.39a27,27,0,0,0,27-27v-69.61l36.77-38.64-359.07-1.12C1097.13,975.56,1085,987.66,1085,1003.18Z" transform="translate(-117.42 -385.52)"/><polygon class="cls-3" points="1273.4 640 1005.35 638.77 1005.38 630.53 1273.43 631.77 1273.4 640"/><polygon class="cls-3" points="1273.4 667.11 1005.35 665.87 1005.38 657.63 1273.43 658.87 1273.4 667.11"/><rect class="cls-3" x="1333.69" y="1021.63" width="8.24" height="106.06" transform="translate(139.15 2021.65) rotate(-89.72)"/><path class="cls-4" d="M676.87,918v63.83A20.91,20.91,0,0,1,656,1002.69H427.08a20.91,20.91,0,0,1-20.91-20.91V927.85l-28.49-29.94L655.9,897A20.9,20.9,0,0,1,676.87,918Z" transform="translate(-117.42 -385.52)"/><polygon class="cls-2" points="322.49 550.19 530.18 549.23 530.16 542.85 322.47 543.81 322.49 550.19"/><polygon class="cls-2" points="322.49 571.19 530.18 570.23 530.16 563.85 322.47 564.81 322.49 571.19"/><rect class="cls-2" x="439.9" y="970.6" width="82.18" height="6.38" transform="translate(-122.21 -383.14) rotate(-0.28)"/><path class="cls-5" d="M1256.67,1050.31V1460.2a36.14,36.14,0,0,1-36.12,36.15H600.87a36.11,36.11,0,0,1-36.15-36.15V1330.05l.13-.28s-.1,0-.13-.06v-279.4a36.14,36.14,0,0,1,36.15-36.14h619.65A36.14,36.14,0,0,1,1256.67,1050.31Z" transform="translate(-117.42 -385.52)"/><path class="cls-5" d="M564.85,1329.77l-.13.28v-.34S564.82,1329.74,564.85,1329.77Z" transform="translate(-117.42 -385.52)"/><rect class="cls-6" x="675.11" y="966.32" width="451.76" height="577.87" transform="translate(-471.68 1770.73) rotate(-90)"/><circle class="cls-7" cx="1221.91" cy="1255.25" r="18.5" transform="translate(-397.03 1772.05) rotate(-76.77)"/><rect class="cls-7" x="515.86" y="1251.43" width="145.22" height="7.64" rx="1.19" transform="translate(-784.21 1458.2) rotate(-90)"/><circle class="cls-8" cx="736.98" cy="1268.83" r="46.69" transform="matrix(0.55, -0.84, 0.84, 0.55, -845.48, 801.29)"/><circle class="cls-9" cx="736.98" cy="1268.83" r="46.69" transform="matrix(0.55, -0.84, 0.84, 0.55, -845.48, 801.29)"/><path class="cls-5" d="M720.87,1257.07c1.77-.15,3.38,1.8,3.59,4.36s-1.06,4.74-2.83,4.89-3.37-1.81-3.58-4.36S719.1,1257.21,720.87,1257.07Z" transform="translate(-117.42 -385.52)"/><path class="cls-5" d="M750.55,1256.46c-1.77-.08-3.29,1.94-3.4,4.5s1.25,4.69,3,4.77,3.3-2,3.4-4.51S752.33,1256.53,750.55,1256.46Z" transform="translate(-117.42 -385.52)"/><path class="cls-5" d="M755.64,1278.08c0,.55-8.7,1-19.43,1s-19.44-.44-19.44-1,8.7-1,19.44-1S755.64,1277.53,755.64,1278.08Z" transform="translate(-117.42 -385.52)"/><path class="cls-5" d="M724.44,1251.7c-.11.56-2.33.54-4.93,1s-4.7,1.09-5,.59,1.67-2.09,4.68-2.56S724.58,1251.19,724.44,1251.7Z" transform="translate(-117.42 -385.52)"/><path class="cls-5" d="M759,1254c-.35.44-2.37-.61-5-1.39s-4.85-1.07-4.89-1.64,2.48-1.19,5.47-.26S759.33,1253.57,759,1254Z" transform="translate(-117.42 -385.52)"/><circle class="cls-8" cx="1074.95" cy="1264.96" r="48.39" transform="translate(-460.75 1742.07) rotate(-80.95)"/><circle class="cls-10" cx="1074.95" cy="1264.96" r="48.39" transform="translate(-460.75 1742.07) rotate(-80.95)"/><path class="cls-5" d="M1058.25,1252.76c1.83-.15,3.5,1.88,3.72,4.52s-1.09,4.92-2.93,5.07-3.5-1.87-3.71-4.52S1056.42,1252.92,1058.25,1252.76Z" transform="translate(-117.42 -385.52)"/><path class="cls-5" d="M1089,1252.13c-1.84-.07-3.42,2-3.53,4.67s1.29,4.87,3.13,4.94,3.42-2,3.53-4.67S1090.86,1252.21,1089,1252.13Z" transform="translate(-117.42 -385.52)"/><path class="cls-5" d="M1094.29,1274.54c-.2.26-2.21-1.16-5.66-2.94a31.51,31.51,0,0,0-14.41-3.56,35.89,35.89,0,0,0-14.44,3.75c-3.51,1.71-5.59,3-5.78,2.75s1.67-1.91,5.11-4a31.49,31.49,0,0,1,15.08-4.5,28.35,28.35,0,0,1,15.12,4.32C1092.73,1272.54,1094.43,1274.37,1094.29,1274.54Z" transform="translate(-117.42 -385.52)"/><path class="cls-5" d="M1062,1247.21c.17.2-.15.81-1,1.51a8,8,0,0,1-3.79,1.77,7.32,7.32,0,0,1-4.2-.46c-1-.46-1.44-1-1.33-1.22.25-.53,2.53.23,5.18-.28S1061.58,1246.74,1062,1247.21Z" transform="translate(-117.42 -385.52)"/><path class="cls-5" d="M1097.75,1249.55c.08.25-.45.72-1.52,1.06a7.2,7.2,0,0,1-4.35-.16,8.56,8.56,0,0,1-3.56-2.38c-.71-.82-1-1.46-.78-1.65.43-.44,2.37,1.23,5,2.15S1097.56,1249,1097.75,1249.55Z" transform="translate(-117.42 -385.52)"/><polygon class="cls-8" points="864.79 1013.76 876 1008.2 886.94 1014.28 885.12 1001.9 894.28 993.39 881.94 991.29 876.68 979.94 870.87 991.03 858.45 992.53 867.2 1001.48 864.79 1013.76"/><polygon class="cls-8" points="819.06 1013.76 830.27 1008.2 841.2 1014.28 839.38 1001.9 848.55 993.39 836.21 991.29 830.94 979.94 825.14 991.03 812.72 992.53 821.47 1001.48 819.06 1013.76"/><polygon class="cls-8" points="773.33 1013.76 784.54 1008.2 795.47 1014.28 793.65 1001.9 802.82 993.39 790.48 991.29 785.21 979.94 779.41 991.03 766.99 992.53 775.74 1001.48 773.33 1013.76"/><polygon class="cls-8" points="727.6 1013.76 738.8 1008.2 749.74 1014.28 747.92 1001.9 757.08 993.39 744.75 991.29 739.48 979.94 733.67 991.03 721.25 992.53 730 1001.48 727.6 1013.76"/><polygon class="cls-8" points="681.86 1013.76 693.07 1008.2 704.01 1014.28 702.18 1001.9 711.35 993.39 699.01 991.29 693.75 979.94 687.94 991.03 675.52 992.53 684.27 1001.48 681.86 1013.76"/><path class="cls-11" d="M1012.22,1124c0,.28-50.18.5-112.05.5s-112.06-.22-112.06-.5,50.16-.49,112.06-.49S1012.22,1123.73,1012.22,1124Z" transform="translate(-117.42 -385.52)"/><path class="cls-11" d="M957.13,1110.54c0,.28-24.78.5-55.34.5s-55.35-.22-55.35-.5,24.77-.49,55.35-.49S957.13,1110.27,957.13,1110.54Z" transform="translate(-117.42 -385.52)"/><circle class="cls-8" cx="909.73" cy="1253.81" r="63.75" transform="translate(-680.05 1349.76) rotate(-72.14)"/><path class="cls-5" d="M887.74,1237.75c2.41-.2,4.6,2.47,4.89,6s-1.44,6.48-3.85,6.68-4.61-2.47-4.9-6S885.32,1238,887.74,1237.75Z" transform="translate(-117.42 -385.52)"/><path class="cls-5" d="M928.26,1236.92c-2.42-.1-4.5,2.65-4.64,6.15s1.7,6.41,4.13,6.51,4.5-2.66,4.64-6.16S930.69,1237,928.26,1236.92Z" transform="translate(-117.42 -385.52)"/><path class="cls-5" d="M935.22,1257.84c.09.09-.42.75-1.45,1.87A36.8,36.8,0,0,1,929,1264a34.11,34.11,0,0,1-8.43,4.62,30,30,0,0,1-11.69,1.83,34.54,34.54,0,0,1-11.49-2.65,50,50,0,0,1-8.47-4.43c-4.51-3-6.91-5.37-6.77-5.54s2.9,1.68,7.5,4.33a59.57,59.57,0,0,0,8.4,3.93,35.56,35.56,0,0,0,10.93,2.37,30,30,0,0,0,11-1.57,37.12,37.12,0,0,0,8.23-4.05c2.18-1.49,3.93-2.75,5.06-3.71S935.12,1257.74,935.22,1257.84Z" transform="translate(-117.42 -385.52)"/><path class="cls-5" d="M890.62,1223.41c-.11.56-3.16.36-6.78.95s-6.48,1.67-6.75,1.16,2.4-2.51,6.44-3.13S890.76,1222.9,890.62,1223.41Z" transform="translate(-117.42 -385.52)"/><path class="cls-5" d="M941.94,1226.39c-.36.45-3.06-1.16-6.67-2.24s-6.74-1.31-6.78-1.89,3.35-1.26,7.36,0S942.29,1226,941.94,1226.39Z" transform="translate(-117.42 -385.52)"/><path class="cls-5" d="M883.18,1253.25c.25,0,.65.62.72,1.82a7.52,7.52,0,0,1-5.09,7.17c-1.16.33-1.91.17-2-.08-.09-.55,2.36-1.37,4-3.84S882.63,1253.35,883.18,1253.25Z" transform="translate(-117.42 -385.52)"/><path class="cls-5" d="M940.6,1259.11c0,.25-.47.64-1.47.72a5.77,5.77,0,0,1-5.77-4.28c-.2-1,0-1.59.27-1.61.56,0,1.19,1.84,3.06,3.16S940.49,1258.57,940.6,1259.11Z" transform="translate(-117.42 -385.52)"/><path class="cls-8" d="M987.67,1253.25s0-.43-.11-1.28-.14-2.13-.24-3.76c-.05-.83-.1-1.75-.16-2.77s-.33-2.11-.5-3.3-.4-2.49-.62-3.86a41.14,41.14,0,0,0-1-4.32,75.22,75.22,0,0,0-8.77-21,78.37,78.37,0,0,0-20.06-22.37l-3.4-2.54c-1.2-.79-2.46-1.51-3.71-2.28s-2.48-1.6-3.84-2.22l-4.1-2-2.08-1-2.18-.79-4.44-1.62c-1.5-.49-3.08-.82-4.64-1.24a39.32,39.32,0,0,0-4.77-1.08,73.47,73.47,0,0,0-10-1.15c-1.69-.06-3.41-.23-5.13-.2l-5.21.27c-.87.06-1.76.06-2.63.17l-2.63.41c-1.75.29-3.53.49-5.3.86a82.37,82.37,0,0,0-10.49,3.08,80.86,80.86,0,0,0-10.27,4.51c-1.66.9-3.26,2-4.9,2.93-.81.51-1.67,1-2.44,1.54l-2.31,1.73a88.53,88.53,0,0,0-8.93,7.59l-4,4.41-1,1.1-.9,1.2-1.8,2.41-1.81,2.42-1.59,2.59-1.58,2.61-.8,1.31-.67,1.37c-.88,1.85-1.78,3.7-2.67,5.55q-1.07,2.91-2.14,5.83a78,78,0,0,0,0,49.67c.71,2,1.43,3.89,2.13,5.83l2.68,5.55.67,1.38.79,1.3,1.59,2.61,1.58,2.59,1.81,2.42,1.8,2.42.91,1.19,1,1.11,4,4.41a88.53,88.53,0,0,0,8.93,7.59l2.32,1.74c.77.58,1.63,1,2.43,1.53,1.65,1,3.25,2,4.91,2.93a80.93,80.93,0,0,0,10.27,4.52,83.68,83.68,0,0,0,10.5,3.08c1.76.36,3.54.57,5.29.86l2.63.4c.87.12,1.76.11,2.63.17l5.21.27c1.73,0,3.44-.14,5.14-.2a72.26,72.26,0,0,0,10-1.15,40.19,40.19,0,0,0,4.77-1.08c1.56-.42,3.13-.74,4.64-1.24l4.43-1.62,2.19-.79,2.08-1,4.09-2c1.37-.62,2.57-1.5,3.84-2.22s2.51-1.49,3.71-2.28l3.41-2.54a78.46,78.46,0,0,0,20-22.37,75.22,75.22,0,0,0,8.77-21,40.56,40.56,0,0,0,1-4.32c.22-1.37.43-2.66.62-3.85s.39-2.3.5-3.31.11-1.94.16-2.77c.1-1.63.18-2.88.24-3.76s.11-1.28.11-1.28,0,.44,0,1.29-.08,2.13-.14,3.76c0,.84-.07,1.76-.12,2.78s-.29,2.13-.45,3.33-.37,2.49-.57,3.87a43,43,0,0,1-1,4.35,75.33,75.33,0,0,1-8.67,21.2,78.82,78.82,0,0,1-20.1,22.64l-3.43,2.58c-1.21.8-2.48,1.53-3.73,2.31s-2.5,1.62-3.88,2.25l-4.12,2-2.1,1-2.21.81-4.47,1.65c-1.52.51-3.11.84-4.69,1.27a40.45,40.45,0,0,1-4.81,1.1,72.18,72.18,0,0,1-10.06,1.19c-1.72.07-3.45.24-5.19.22l-5.27-.26c-.89-.06-1.78-.06-2.66-.17l-2.66-.4c-1.77-.29-3.58-.5-5.36-.86a84.46,84.46,0,0,1-10.63-3.1,83.32,83.32,0,0,1-10.39-4.55c-1.69-.91-3.3-2-5-3-.82-.52-1.69-1-2.46-1.55l-2.35-1.75a90.79,90.79,0,0,1-9-7.68l-4-4.46-1-1.12-.92-1.21-1.83-2.44-1.83-2.45-1.61-2.62-1.6-2.64-.8-1.32-.69-1.4-2.71-5.62c-.71-2-1.44-3.93-2.16-5.9a79,79,0,0,1,0-50.29l2.17-5.9,2.71-5.62.68-1.39.81-1.33,1.6-2.64,1.61-2.62,1.83-2.45,1.83-2.44.91-1.21,1-1.12,4.06-4.45a88.18,88.18,0,0,1,9-7.67l2.35-1.76c.78-.58,1.65-1,2.46-1.55,1.67-1,3.28-2,5-3a81.93,81.93,0,0,1,10.39-4.56,86.1,86.1,0,0,1,10.63-3.09c1.78-.37,3.59-.57,5.36-.86l2.65-.4c.89-.12,1.78-.11,2.67-.17l5.26-.26c1.75,0,3.48.15,5.19.21a73.68,73.68,0,0,1,10.07,1.19,40.9,40.9,0,0,1,4.81,1.1c1.57.44,3.17.77,4.69,1.27l4.47,1.65,2.2.81,2.1,1,4.13,2c1.37.63,2.59,1.52,3.87,2.25s2.53,1.51,3.73,2.31l3.43,2.58a78.87,78.87,0,0,1,20.11,22.64,75.33,75.33,0,0,1,8.67,21.2,43,43,0,0,1,1,4.35q.3,2.07.57,3.87c.16,1.21.36,2.31.45,3.33s.09,1.95.12,2.78c.06,1.63.11,2.89.14,3.77S987.67,1253.25,987.67,1253.25Z" transform="translate(-117.42 -385.52)"/><rect class="cls-12" x="494.64" y="643.85" width="577.87" height="28.83"/><path class="cls-13" d="M630.7,1043a3.9,3.9,0,1,1-3.9-3.9A3.89,3.89,0,0,1,630.7,1043Z" transform="translate(-117.42 -385.52)"/><path class="cls-13" d="M643.68,1043a3.91,3.91,0,1,1-3.91-3.9A3.9,3.9,0,0,1,643.68,1043Z" transform="translate(-117.42 -385.52)"/><path class="cls-13" d="M656.65,1043a3.91,3.91,0,1,1-3.91-3.9A3.9,3.9,0,0,1,656.65,1043Z" transform="translate(-117.42 -385.52)"/><path class="cls-8" d="M1126.26,1146.74c0,.27-100.27.5-223.93.5s-223.94-.23-223.94-.5,100.24-.5,223.94-.5S1126.26,1146.46,1126.26,1146.74Z" transform="translate(-117.42 -385.52)"/><path class="cls-8" d="M1126.26,1157.84c0,.27-100.27.5-223.93.5s-223.94-.23-223.94-.5,100.24-.5,223.94-.5S1126.26,1157.56,1126.26,1157.84Z" transform="translate(-117.42 -385.52)"/><path class="cls-14" d="M764.91,917.46c-6.19,12.13-20.67,6.23-38.49-8.14-21.29-17.16-45.7-64.47-30.77-93.5h0a35.65,35.65,0,0,1,5.09-7.43c24.49-27.6,67.83,77.5,67.37,92.82C767.9,908.45,766.78,913.78,764.91,917.46Z" transform="translate(-117.42 -385.52)"/><path class="cls-15" d="M764.91,917.46c-6.19,12.13-20.67,6.23-38.49-8.14-21.29-17.16-45.7-64.47-30.77-93.5C699.53,845.05,713.81,894,764.91,917.46Z" transform="translate(-117.42 -385.52)"/><path class="cls-16" d="M729.56,829c4.13,7.66,9.76,21,7.23,22.56s-13.74-8.85-19.9-21.63c-4.2-8.72-6.85-20.12-4.43-21.33C715.2,807.26,724.18,819.05,729.56,829Z" transform="translate(-117.42 -385.52)"/><path class="cls-14" d="M999.62,1014.16H802.53c15.75-31.18,63.52-29.33,95.9-29.33C938.57,984.83,985.76,982,999.62,1014.16Z" transform="translate(-117.42 -385.52)"/><path class="cls-16" d="M863.57,1014.16h-43c7.23-8.78,19.93-11.71,30.3-8.37A29.55,29.55,0,0,1,863.57,1014.16Z" transform="translate(-117.42 -385.52)"/><path class="cls-14" d="M1074.84,902.38c-17.64,18.35-32.5,25.81-39.51,8.44a53.11,53.11,0,0,1-2.89-11.21c-2.38-15.15,27.28-124.89,55.08-100.62,7.18,6.28,11.18,14.78,12.82,24.3C1105,850.63,1090.17,886.43,1074.84,902.38Z" transform="translate(-117.42 -385.52)"/><path class="cls-15" d="M1074.84,902.38c-17.64,18.35-32.5,25.81-39.51,8.44,13.12-6.24,37.66-25.86,65-87.53C1105,850.63,1090.17,886.43,1074.84,902.38Z" transform="translate(-117.42 -385.52)"/><path class="cls-16" d="M1062.82,841.86c-5.65,16.28-16.74,43.44-19.81,42.47-2.77-.88.61-24.77,10.73-46.69,5.64-12.2,14-25.07,16-24.17C1072.27,814.6,1064.57,836.8,1062.82,841.86Z" transform="translate(-117.42 -385.52)"/><path class="cls-14" d="M791.42,866.91a40.16,40.16,0,0,1-8.36-12.42,38.39,38.39,0,0,1,26.88-53,39.41,39.41,0,0,1,9.87-1C827.24,844.38,791.42,866.91,791.42,866.91Z" transform="translate(-117.42 -385.52)"/><path class="cls-15" d="M791.42,866.91a40.16,40.16,0,0,1-8.36-12.42c4.53-7.8,9.08-16.1,13.57-24.9,5-9.71,9.36-19.11,13.31-28.13a39.41,39.41,0,0,1,9.87-1Q805.61,833.66,791.42,866.91Z" transform="translate(-117.42 -385.52)"/><path class="cls-14" d="M1008.09,912.42c-4.28,54.84-130.17,72.24-188.82,38.74-16.3-9.31-27.4-22.55-29.27-40-8.58-80.28,45-153.42,106-153.07,22.12.13,48,8.74,69.45,27.62C992.86,809.88,1012.89,850.88,1008.09,912.42Z" transform="translate(-117.42 -385.52)"/><path class="cls-15" d="M1008.09,912.42c-4.28,54.84-130.17,72.24-188.82,38.74,35.91,6.17,142.86,19.89,162.41-31.56,16.82-44.24-3.32-103.52-16.25-133.89C992.86,809.88,1012.89,850.88,1008.09,912.42Z" transform="translate(-117.42 -385.52)"/><path class="cls-16" d="M825.36,811.67c3.22,4.31,23.26-4.55,36.74-14.35,12.92-9.39,26.14-24.25,23.27-28.49-2.55-3.77-17.34,1.49-26.65,6.37C837.88,786.12,821.84,807,825.36,811.67Z" transform="translate(-117.42 -385.52)"/><path class="cls-16" d="M795.74,896.88c.39,14.66,9.27,28.62,12.89,27.7,3.81-1,2.37-18.49.67-28.13-.49-2.76-3.47-19.67-7.42-19.62C798.77,876.86,795.49,887.38,795.74,896.88Z" transform="translate(-117.42 -385.52)"/><path class="cls-17" d="M975.72,840.17c-.06,11-12.19,17.72-27.79,21.65-16.43,4.15-36.71,5.23-50.83,5-20.21-.31-59.18-4-73.16-16.93-3.28-3-5.19-6.55-5.16-10.64A42.51,42.51,0,0,1,832,808.79a44.94,44.94,0,0,1,31.48-12.46l68.14.39a44.8,44.8,0,0,1,35,16.89A42.28,42.28,0,0,1,975.72,840.17Z" transform="translate(-117.42 -385.52)"/><path class="cls-18" d="M975.72,840.17c-.06,11-12.19,17.72-27.79,21.65-16.43,4.15-36.71,5.23-50.83,5-20.21-.31-59.18-4-73.16-16.93,40-1,108.13-7.15,142.6-36.29A42.28,42.28,0,0,1,975.72,840.17Z" transform="translate(-117.42 -385.52)"/><path class="cls-19" d="M961.84,830.8a19.84,19.84,0,0,1-38.41,6.86,19.58,19.58,0,0,1-1.26-7.08,19.84,19.84,0,0,1,39.67.22Z" transform="translate(-117.42 -385.52)"/><path class="cls-20" d="M963.25,821.29a20.51,20.51,0,0,0-2-3.58,23.23,23.23,0,0,0-19.11-10.24H942a23.28,23.28,0,0,0-23.24,23.09,22.19,22.19,0,0,0,.84,6.29,17.24,17.24,0,0,0,.64,2,23.37,23.37,0,0,0,21.63,15.06H942a23.23,23.23,0,0,0,21.24-32.62ZM961.12,836c-.06.23-.13.45-.21.68a18.14,18.14,0,0,1-1.21,3,14.55,14.55,0,0,1-.77,1.38,18,18,0,0,1-1.06,1.57,17.71,17.71,0,0,1-1.23,1.47c-.23.25-.43.47-.66.68a19.76,19.76,0,0,1-14,5.77h-.11a19.88,19.88,0,0,1-18.48-12.87c-.22-.6-.41-1.2-.58-1.81a19.53,19.53,0,0,1-.67-5.27c0-.34,0-.66,0-1,0,0,0,0,0,0a16.52,16.52,0,0,1,.2-2,17,17,0,0,1,.6-2.6,1.87,1.87,0,0,1,.07-.22,0,0,0,0,1,0,0,19.36,19.36,0,0,1,2.51-5.17c.18-.25.35-.51.56-.75v0l.26-.34c.21-.28.43-.54.65-.8s.19-.2.3-.3v0a8.31,8.31,0,0,1,.66-.67,17.37,17.37,0,0,1,2.14-1.87s0,0,0,0v0c.27-.18.51-.37.77-.54l.81-.5h0c.17-.11.34-.23.51-.32.37-.2.76-.41,1.15-.6.58-.26,1.18-.52,1.8-.74a15.92,15.92,0,0,1,1.85-.58h0a16.39,16.39,0,0,1,1.9-.4,21,21,0,0,1,3.08-.22q.76,0,1.5.06l.43.05a20.06,20.06,0,0,1,12.2,5.91c.3.29.58.61.86.93a12.53,12.53,0,0,1,1,1.21,7.14,7.14,0,0,1,.43.64,19.71,19.71,0,0,1,1.66,3s0,0,0,0a19.65,19.65,0,0,1,1.7,8.12A19.86,19.86,0,0,1,961.12,836Z" transform="translate(-117.42 -385.52)"/><path class="cls-21" d="M960.13,822.64c-7.51,17.86-25.87,17.22-36.66,15.08a19.83,19.83,0,0,1,36.66-15.08Z" transform="translate(-117.42 -385.52)"/><circle class="cls-16" cx="934.59" cy="824.06" r="6.58" transform="translate(-428.81 430.17) rotate(-41.02)"/><path class="cls-16" d="M957.54,834.63c1.07.73-.43,7.63-5.36,10.25-4.38,2.32-10.14.57-10.27-.7-.1-.94,2.9-1.18,7.93-4.18C955.13,836.83,956.79,834.12,957.54,834.63Z" transform="translate(-117.42 -385.52)"/><path class="cls-19" d="M873.85,830.29a19.86,19.86,0,1,1-1.7-8.12A19.83,19.83,0,0,1,873.85,830.29Z" transform="translate(-117.42 -385.52)"/><path class="cls-20" d="M875.24,820.79A23.19,23.19,0,0,0,854.15,807H854a23.22,23.22,0,0,0-21.74,31.38,23.41,23.41,0,0,0,21.61,15.08H854a23.32,23.32,0,0,0,23.22-23.09A22.8,22.8,0,0,0,875.24,820.79ZM873.6,833.3c-.1.66-.25,1.29-.41,1.93a19.36,19.36,0,0,1-.94,2.75,12.91,12.91,0,0,1-.84,1.71,16.84,16.84,0,0,1-1,1.63l-.56.78a21,21,0,0,1-1.87,2.13q-.33.35-.69.66a21.1,21.1,0,0,1-2.22,1.75h0c-.37.25-.77.49-1.16.71l-.45.28A19.7,19.7,0,0,1,854,850h-.11a19.62,19.62,0,0,1-6.67-1.2,19.84,19.84,0,0,1-11.81-11.66,21.06,21.06,0,0,1-1.25-7.08c0-.33,0-.65,0-1,0,0,0,0,0,0a15.74,15.74,0,0,1,.2-1.94c.06-.33.11-.65.19-1a0,0,0,0,1,0-.06,9.28,9.28,0,0,1,.22-.91v-.06a18.9,18.9,0,0,1,.68-2c.19-.52.41-1,.65-1.52s.41-.84.64-1.24a20.34,20.34,0,0,1,7.92-7.72c.52-.28,1.06-.54,1.6-.78s1.2-.47,1.8-.66l.16,0,.81-.23a8.14,8.14,0,0,1,.95-.22,18.74,18.74,0,0,1,4.13-.45,19.63,19.63,0,0,1,14.05,6.05l0,0a13,13,0,0,1,.91,1s0,0,0,0c.17.2.32.41.47.61a19.3,19.3,0,0,1,2.48,4.11s0,0,0,0a20.05,20.05,0,0,1,1.44,11.13Z" transform="translate(-117.42 -385.52)"/><path class="cls-21" d="M872.14,822.13c-7.51,17.86-25.88,17.22-36.67,15.08a19.83,19.83,0,0,1,36.67-15.08Z" transform="translate(-117.42 -385.52)"/><path class="cls-16" d="M853.18,823.59a6.59,6.59,0,1,1-6.54-6.62A6.58,6.58,0,0,1,853.18,823.59Z" transform="translate(-117.42 -385.52)"/><path class="cls-16" d="M869.54,834.12c1.08.73-.43,7.63-5.35,10.25-4.38,2.32-10.15.57-10.28-.7-.09-.94,2.91-1.18,7.93-4.18C867.14,836.32,868.8,833.61,869.54,834.12Z" transform="translate(-117.42 -385.52)"/><path class="cls-22" d="M903.38,801.08c.18,1.31-8.75,4.37-18,5.17-15,1.29-28.69-3.53-28.48-5.19.1-.76,9.57-.8,28.51-.84C900.65,800.19,903.28,800.38,903.38,801.08Z" transform="translate(-117.42 -385.52)"/><path class="cls-14" d="M784.09,829.08c-.39-.32-9.77-8-15.47-22.82-5.21-13.6-8.19-36.08,7.21-65.94L781.1,743c-11.39,22.09-13.79,43.22-6.94,61.09,5.13,13.38,13.56,20.26,13.65,20.32Z" transform="translate(-117.42 -385.52)"/><circle class="cls-17" cx="781.93" cy="735.43" r="13.81" transform="translate(-395.57 181.1) rotate(-34.2)"/><path class="cls-22" d="M773.28,731.39a7.41,7.41,0,1,0,7.45-7.37A7.41,7.41,0,0,0,773.28,731.39Z" transform="translate(-117.42 -385.52)"/><path class="cls-17" d="M896.76,900.79a36.6,36.6,0,0,1-22.46-6.62c-9.8-7-13.09-17-10-17.32,4.79-.45,16.38,4.58,29.32,4.29,14.87-.33,24.93-4,32.57-4.47.34,0,.67,0,1,0C935,876.45,926,900.13,896.76,900.79Z" transform="translate(-117.42 -385.52)"/><path class="cls-18" d="M896.76,900.79a36.6,36.6,0,0,1-22.46-6.62c12.9-1.87,38.21-6.72,51.89-17.5.34,0,.67,0,1,0C935,876.45,926,900.13,896.76,900.79Z" transform="translate(-117.42 -385.52)"/><path class="cls-23" d="M599.24,834.46l-.9.35a70.44,70.44,0,0,1-23.68,4.26q-1.6,0-3.21-.09a70.14,70.14,0,0,1-25.69-5.51,78.2,78.2,0,0,1-45.05-54.09,37.83,37.83,0,0,1-1.08-5.47c-.08-.62-.18-1.21-.28-1.8a35.47,35.47,0,0,1-.48-3.69c0-.84-.09-1.64-.14-2.44a57.42,57.42,0,0,1-.11-8.31c.05-7.13,1.6-14,3.1-19.82a82.52,82.52,0,0,1,7.49-17.39,76.73,76.73,0,0,1,21.31-23.88,73.74,73.74,0,0,1,21.74-10.81l4.49-1.22a22.21,22.21,0,0,1,3-.59c.4-.06.8-.11,1.17-.19a43.4,43.4,0,0,1,6.77-.8l3.7-.17,2.17,0h2.13v0l4.82.14,5.72.78a77.61,77.61,0,0,1,15.6,4.47,75.44,75.44,0,0,1,35.82,31.58A80.47,80.47,0,0,1,647.9,749a82,82,0,0,1-2.33,34.72A80,80,0,0,1,628,814.91l13.59,40.42Zm29.08,5.68-9.1-27.21,1.63-1.67a72.22,72.22,0,0,0,17.43-29.73,74.7,74.7,0,0,0,2.21-31.5,73.25,73.25,0,0,0-9.19-26.55A72.41,72.41,0,0,0,615.81,705a75.1,75.1,0,0,0-16.75-10.38,73.4,73.4,0,0,0-13.94-4.2l-5.43-.86L576,689.3l-2.5-.16-.62-.07c-.38.06-.74.1-1,.12l-3.84.33a40,40,0,0,0-5.71.83l-1.5.27a15.84,15.84,0,0,0-2.13.44l-4.38,1.27a67.65,67.65,0,0,0-19.52,10,70.18,70.18,0,0,0-19.19,21.86,74.42,74.42,0,0,0-6.68,15.75A75.81,75.81,0,0,0,506.12,758a51.76,51.76,0,0,0,.14,7.47c.05.83.11,1.66.15,2.49a28.6,28.6,0,0,0,.41,2.95c.11.64.21,1.28.3,1.93a33.11,33.11,0,0,0,.94,4.7,69.61,69.61,0,0,0,7.8,19.59,68.7,68.7,0,0,0,32.94,29.24,62.74,62.74,0,0,0,23,4.87c1,0,1.93.08,2.87.08a62.72,62.72,0,0,0,21-3.79l4-1.52Z" transform="translate(-117.42 -385.52)"/><path class="cls-23" d="M572.8,685.92a9.53,9.53,0,0,1-1.3.16l-3.8.32a43.62,43.62,0,0,0-6.13.89c-1.2.26-2.52.37-3.87.78l-4.33,1.25a71.63,71.63,0,0,0-20.52,10.48,73.07,73.07,0,0,0-20,22.83A77.08,77.08,0,0,0,505.87,739a81.74,81.74,0,0,0-2.58,29.15c.11,1.71.5,3.41.73,5.14a37,37,0,0,0,1,5.17,73.1,73.1,0,0,0,8.07,20.22,72.26,72.26,0,0,0,34.44,30.59,66.42,66.42,0,0,0,24.09,5.12,64.89,64.89,0,0,0,25.05-3.9l2.45-.93.33-.12.29.15,35.5,17.51-1,.91-11.31-33.79-.14-.42.3-.32a75.31,75.31,0,0,0,18.18-31,77.45,77.45,0,0,0,2.32-32.83,75.51,75.51,0,0,0-25.75-47,77.19,77.19,0,0,0-17.46-10.83,75.79,75.79,0,0,0-14.7-4.45l-5.5-.87-4-.24-2.48-.16a5.21,5.21,0,0,1-.85-.1,4.61,4.61,0,0,1,.85,0l2.49,0,4.08.12,5.55.76a74.6,74.6,0,0,1,14.88,4.28,77.57,77.57,0,0,1,17.77,10.79,76,76,0,0,1,16.51,19.48,76.88,76.88,0,0,1,9.87,28.06,78.37,78.37,0,0,1-2.23,33.38,76.53,76.53,0,0,1-18.44,31.65l.16-.73c3.65,10.83,7.45,22.12,11.37,33.77l.57,1.71-1.61-.8-35.51-17.49.62,0-2.51,1a66.39,66.39,0,0,1-25.6,4A67.91,67.91,0,0,1,547,830.6a73.56,73.56,0,0,1-35.08-31.26,74.38,74.38,0,0,1-8.15-20.61,35.84,35.84,0,0,1-1-5.27c-.24-1.75-.63-3.48-.73-5.23a82.35,82.35,0,0,1,2.75-29.6,78,78,0,0,1,7.12-16.53,73.63,73.63,0,0,1,20.48-23,71.33,71.33,0,0,1,20.85-10.35l4.38-1.19a37.61,37.61,0,0,1,3.91-.72,40.51,40.51,0,0,1,6.18-.76l3.83-.17A7.1,7.1,0,0,1,572.8,685.92Z" transform="translate(-117.42 -385.52)"/><path class="cls-2" d="M589.5,751.07l-5.17.06-11.46-15.6-.12-10.32s-8-.4-6.91,13.11,0,10.07,0,10.07-17,.26-18.36,1.75c-1,1.08-1.29,18-1.36,27.1,0,4.6,2.83,8.85,7.12,9.89a7.21,7.21,0,0,0,1.83.22c4.24,0,25.83-3.73,25.83-3.73l8.93-.1Z" transform="translate(-117.42 -385.52)"/><polygon class="cls-2" points="486.85 362.56 484.07 397.96 475.22 398.06 474.82 363.4 486.85 362.56"/><path class="cls-24" d="M586.63,1493.44c0,.84-.1,1.69-.16,2.53,0,.25,0,.5-.06.72H554.64c-1.4,0-2.78,0-4.16,0h-5.32c-6,0-11.95,0-17.68,0a5.86,5.86,0,0,0-.59-.63c-2.38-2.53-4.95-5.13-7.64-7.76-.88-.87-1.75-1.72-2.66-2.59C488.93,1459,451.44,1428.85,456,1414c.22-.69.43-1.31.65-1.94h0c.06-.19.12-.34.18-.53a9.41,9.41,0,0,1,.41-1c7.85-17.93,27-14.55,27-14.55-10.24-9.17-18.72-23.38-24.13-38.09-.22-.59-.41-1.22-.63-1.81-8-22.85-8.45-46.54,3.63-54.39,0,0,0,0,.07,0,.34-.22.72-.44,1.09-.66l.09-.06a16.92,16.92,0,0,1,5-1.69c7.33-1.25,14.4,1.56,20.91,6.41.4.32.78.63,1.19.94,18.71,15,32.35,46.57,32.35,46.57s23-33.36,40.78-23.5c0,0,.1,0,.13.06l-.13.28V1460.2A36.1,36.1,0,0,0,586.63,1493.44Z" transform="translate(-117.42 -385.52)"/><path class="cls-25" d="M548.39,1496l2.09.69h-5.32l-2-.69-23.88-7.73c-.87-.87-1.75-1.72-2.66-2.59Z" transform="translate(-117.42 -385.52)"/><path class="cls-25" d="M564.72,1333.68,524.41,1427c3.45,7.23,6.76,14.24,9.92,20.87q6.34,13.38,11.68,25.29l18.71-29.92V1446l-18,28.72c3.38,7.58,6.41,14.68,9.17,21.25.12.25.22.47.31.69h-1.57a5.23,5.23,0,0,0-.31-.69c-5.29-12.61-11.7-27.13-19.28-43.25l-78.32-40.68h0c.07-.19.16-.34.22-.53a9.41,9.41,0,0,1,.41-1l76.58,39.77c-.25-.56-.54-1.12-.79-1.69-12.2-25.69-27.16-57.08-40.43-85l-32.48-5.76c-.22-.59-.41-1.22-.63-1.81l32.24,5.72c-12.21-25.69-22.94-48.16-28.61-60.11,0,0,0,0,.07,0,.34-.22.72-.44,1.09-.66l.09-.06c3.2,6.73,7.95,16.74,13.71,28.76l12.24-24c.4.32.78.63,1.19.94l-12.65,24.79c12.62,26.47,29.58,62.12,44.63,93.78l41.15-95.16Z" transform="translate(-117.42 -385.52)"/><path class="cls-25" d="M1395.17,1374.33c-7.44,7.26-14.24,16.27-19.9,23.91a133.4,133.4,0,0,0-11.64,19.12v0s0,0,0,.06c-2.38,4.57-4.54,9.27-6.64,13.9-.18.47-.4,1-.62,1.44s-.28.66-.41,1a283.55,283.55,0,0,0-12,32.58c-.25.72-.44,1.47-.65,2.19-2.66,9-4.92,18.21-6.67,27.47,0,0,0,.1,0,.13a.53.53,0,0,1-.44.47.32.32,0,0,0-.16,0,1.75,1.75,0,0,0-.56,0,3.53,3.53,0,0,1,.13-.63c.81-4.35,1.72-8.7,2.75-13,.22-.94.44-1.85.69-2.79v0q1.21-5,2.63-9.86c.22-.75.43-1.53.68-2.28q3.62-12.3,8.3-24.22c.28-.66.53-1.29.81-1.94,1-2.6,2.07-5.14,3.19-7.7.16-.32.29-.66.44-1,0-.07,0-.13.06-.16,2.35-5.38,4.82-10.76,7.55-16v0c.62-1.22,1.25-2.44,1.91-3.63a148.12,148.12,0,0,1,8-13.27c6.07-8.8,13.52-18.75,21.78-26.66a.62.62,0,0,1,.84,0v0A.54.54,0,0,1,1395.17,1374.33Z" transform="translate(-117.42 -385.52)"/><path class="cls-25" d="M1387.57,1415.22a83.39,83.39,0,0,0-31.71,18.59.54.54,0,0,1-.73-.8,84.68,84.68,0,0,1,32.2-18.85c.66-.21.9.85.24,1.06Z" transform="translate(-117.42 -385.52)"/><path class="cls-25" d="M1368.63,1453.49a54.29,54.29,0,0,0-13.79,6.25c-4.16,2.62-8.4,5.27-11.72,9-.47.52-1.19-.28-.73-.8,3.38-3.74,7.72-6.45,11.95-9.11a55.58,55.58,0,0,1,14.05-6.35c.67-.19.91.86.24,1.06Z" transform="translate(-117.42 -385.52)"/><path class="cls-25" d="M1350.51,1443.76a49.06,49.06,0,0,0-11-22.16.61.61,0,1,1,.92-.81,50.33,50.33,0,0,1,11.31,22.73.63.63,0,0,1-1.23.24Z" transform="translate(-117.42 -385.52)"/><path class="cls-25" d="M1362.6,1417.06a35.58,35.58,0,0,0-.25-20.14c-.2-.67.86-.9,1.06-.24a36.72,36.72,0,0,1,.22,20.7.54.54,0,0,1-1-.32Z" transform="translate(-117.42 -385.52)"/><path class="cls-25" d="M1338.21,1483a38.49,38.49,0,0,0-7.67-19.57c-.41-.55.39-1.29.81-.73a39.8,39.8,0,0,1,7.94,20.34c.06.7-1,.65-1.08,0Z" transform="translate(-117.42 -385.52)"/><path class="cls-26" d="M1382.13,1440.09c4.13.61,8.74,2.79,12.49,4.72-3.82.65-7.62,1.46-11.37,2.46a114.61,114.61,0,0,0-21.47,8c-3.6,1.78-7,3.81-10.43,5.93a36.9,36.9,0,0,1,3.7-8.73,27.39,27.39,0,0,1,5.09-6.44C1365.94,1440.76,1374.37,1438.93,1382.13,1440.09Z" transform="translate(-117.42 -385.52)"/><path class="cls-27" d="M1394.68,1445.18a111.24,111.24,0,0,1-11.12,12.57,25.5,25.5,0,0,1-5.19,4c-3.58,1.89-7.82,2-11.87,1.77a93.72,93.72,0,0,1-14.91-2c1.39-.87,2.78-1.74,4.2-2.57A116,116,0,0,1,1394.68,1445.18Z" transform="translate(-117.42 -385.52)"/><path class="cls-28" d="M1378.71,1392.74c1.78-2.61,3.74-5.11,5.73-7.57a272.76,272.76,0,0,1,20.32-22.4c4-4,8.23-8,12.67-11.64a46.49,46.49,0,0,1-5.73,22c-4.75,8.4-10.69,12.08-18.89,15.93C1387.72,1391.49,1384.52,1392.15,1378.71,1392.74Z" transform="translate(-117.42 -385.52)"/><path class="cls-29" d="M1392.22,1375.44a162.94,162.94,0,0,0-13.69,16.85c2.13-12.39,3.87-20.13,9.37-26.86,7.36-9,18.75-15.11,29.21-14.46-.82.68-1.63,1.36-2.43,2A240,240,0,0,0,1392.22,1375.44Z" transform="translate(-117.42 -385.52)"/><path class="cls-30" d="M1416.11,1402.35a51.91,51.91,0,0,1-10.89,16.56c-6.87,6.83-16.42,11.31-26.12,10.82a44.79,44.79,0,0,1-14.52-3.7c3.16-1.85,6.39-3.59,9.65-5.26A408.4,408.4,0,0,1,1416.11,1402.35Z" transform="translate(-117.42 -385.52)"/><path class="cls-31" d="M1383,1416c-6.27,3-12.49,6.08-18.48,9.59a44.32,44.32,0,0,1,18.71-18.06c10-5,21.34-5.82,32.45-5.44-3.16,1.21-6.32,2.44-9.45,3.71Q1394.53,1410.59,1383,1416Z" transform="translate(-117.42 -385.52)"/><path class="cls-26" d="M1309.32,1427.7c8.78,4.48,16.79,10.72,22.06,19,5,7.79,7.23,17.54,5.34,26.5-.94-2.68-1.94-5.35-3-8C1327.83,1451.39,1319.2,1439,1309.32,1427.7Z" transform="translate(-117.42 -385.52)"/><path class="cls-32" d="M1329.63,1457.51a125.39,125.39,0,0,1,6.82,16.12,24.74,24.74,0,0,1-13.44-5.17,32.22,32.22,0,0,1-5.31-5.51,47.83,47.83,0,0,1-9.18-35.56c2.46,2.78,4.85,5.62,7.14,8.55A136.66,136.66,0,0,1,1329.63,1457.51Z" transform="translate(-117.42 -385.52)"/><path class="cls-26" d="M1349.28,1437a80.23,80.23,0,0,1-20.39-14.1c-6.62-6.46-12-15-11.79-24.24a43.15,43.15,0,0,1,2.49-12c1.84,2,3.63,4,5.35,6A135,135,0,0,1,1349.28,1437Z" transform="translate(-117.42 -385.52)"/><path class="cls-26" d="M1320.17,1386.75c16.85,8.2,28.77,25.91,29.76,44.65,0,.52-.26,3.87-.37,5.22-1.5-4.47-3.17-8.88-5.07-13.2A132.54,132.54,0,0,0,1320.17,1386.75Z" transform="translate(-117.42 -385.52)"/><path class="cls-33" d="M1358.36,1379.71a148.6,148.6,0,0,1,6.09,26.58,55.71,55.71,0,0,1-13.47-8.89c-5.67-5.22-10-12.2-10.91-19.86-1-8.63,2.15-16.86,5.25-25.15.69,1.06,1.41,2.1,2.07,3.17A112.13,112.13,0,0,1,1358.36,1379.71Z" transform="translate(-117.42 -385.52)"/><path class="cls-34" d="M1362,1391a134.89,134.89,0,0,0-8.94-25.8,96.51,96.51,0,0,0-6.28-11.35l-.9-1.38a60,60,0,0,1,14.42,12.35,37.43,37.43,0,0,1,7.16,12c3.23,9.52.91,19.82-2.61,29.4A150.79,150.79,0,0,0,1362,1391Z" transform="translate(-117.42 -385.52)"/><path class="cls-25" d="M1353,1365.18A134.89,134.89,0,0,1,1362,1391a150.79,150.79,0,0,1,2.85,15.18l-.09.27-.28-.14a148.6,148.6,0,0,0-6.09-26.58,112.13,112.13,0,0,0-11-24.15c-.66-1.07-1.38-2.11-2.07-3.17l.08-.22.45.28.9,1.38A96.51,96.51,0,0,1,1353,1365.18Z" transform="translate(-117.42 -385.52)"/><path class="cls-25" d="M1320.17,1386.75a132.54,132.54,0,0,1,24.32,36.67c1.9,4.32,3.57,8.73,5.07,13.2,0,.22,0,.39,0,.48l-.25-.11a135,135,0,0,0-24.34-44.3c-1.72-2.06-3.51-4.06-5.35-6l.06-.19Z" transform="translate(-117.42 -385.52)"/><path class="cls-25" d="M1309.32,1427.7c9.88,11.28,18.51,23.69,24.35,37.54,1.11,2.63,2.11,5.3,3,8,0,.14,0,.29-.08.43l-.19,0a125.39,125.39,0,0,0-6.82-16.12,136.66,136.66,0,0,0-14-21.57c-2.29-2.93-4.68-5.77-7.14-8.55,0,0,0-.06,0-.09Z" transform="translate(-117.42 -385.52)"/><path class="cls-25" d="M1384.44,1385.17c-2,2.46-4,5-5.73,7.57l-.27,0,.09-.48a162.94,162.94,0,0,1,13.69-16.85,240,240,0,0,1,22.46-22.42c.8-.69,1.61-1.37,2.43-2l.33,0s0,.09,0,.14c-4.44,3.64-8.63,7.64-12.67,11.64A272.76,272.76,0,0,0,1384.44,1385.17Z" transform="translate(-117.42 -385.52)"/><path class="cls-25" d="M1416.11,1402.35a408.4,408.4,0,0,0-41.88,18.42c-3.26,1.67-6.49,3.41-9.65,5.26l-.22-.08c.07-.12.14-.24.2-.36,6-3.51,12.21-6.62,18.48-9.59q11.46-5.43,23.23-10.2c3.13-1.27,6.29-2.5,9.45-3.71l.5,0A2.56,2.56,0,0,0,1416.11,1402.35Z" transform="translate(-117.42 -385.52)"/><path class="cls-25" d="M1383.25,1447.27c3.75-1,7.55-1.81,11.37-2.46l.26.13-.2.24a116,116,0,0,0-38.89,13.79c-1.42.83-2.81,1.7-4.2,2.57l-.31-.06.07-.25c3.4-2.12,6.83-4.15,10.43-5.93A114.61,114.61,0,0,1,1383.25,1447.27Z" transform="translate(-117.42 -385.52)"/><path class="cls-5" d="M1447.84,1496.35c0,.09-41.74.22-111.91.31a1.75,1.75,0,0,0-.56,0c-98.45.09-252.57.16-425.79.16-132.56,0-254-.07-347.77-.13H530.05c-1.41,0-2.79,0-4.16,0h-5.32c-6,0-12,0-17.69,0-82-.09-131.59-.19-131.59-.31s49.38-.25,131-.32c5.29,0,10.7,0,16.24,0H531.3c9.83,0,20,0,30.57,0,93.79-.06,215.15-.12,347.71-.12,173.28,0,327.46.06,425.92.18h1.06C1406.35,1496.1,1447.84,1496.22,1447.84,1496.35Z" transform="translate(-117.42 -385.52)"/></svg>