<svg id="Layer_1" data-name="Layer 1" xmlns="http://www.w3.org/2000/svg" xmlns:xlink="http://www.w3.org/1999/xlink" viewBox="0 0 1938.52 1150.89"><defs><style>.cls-1{fill:#fff;}.cls-2{fill:#080029;}.cls-3{fill:#d0ccff;}.cls-4{fill:#b8b2ff;}.cls-5{fill:#8178ff;}.cls-6{fill:#a59eff;}.cls-7{fill:#cbc7ff;}.cls-8{fill:#e0e0ff;}.cls-10,.cls-9{fill:#b7b7ff;}.cls-10,.cls-13{opacity:0.6;}.cls-11{fill:#5254cf;}.cls-12{fill:#7a52cf;}.cls-13{fill:#854cf4;}.cls-14{clip-path:url(#clip-path);}.cls-15{fill:#cfb7ff;}.cls-16{fill:#ebe0ff;}.cls-17{fill:#1b1b43;}.cls-18{fill:#725fe8;}.cls-19{fill:#745fde;}.cls-20{fill:#b1b3ed;}.cls-21{fill:#412981;}.cls-22{fill:#4b337a;}.cls-23{fill:#5029bd;}.cls-24{fill:#553860;}.cls-25{fill:#5346d2;}.cls-26{fill:#452f72;}</style><clipPath id="clip-path" transform="translate(-30.74 -424.56)"><circle class="cls-1" cx="882.78" cy="827.02" r="108.61"/></clipPath></defs><path class="cls-2" d="M1947.45,987.51c-3.71,170.86-72.36,367.66-204,585.12-.55,1-1.13,1.89-1.7,2.81h-3.27c.55-.92,1.12-1.88,1.7-2.81,132-217.62,200.77-414.45,204.48-585.18,3.94-179.77-65.77-289.69-124.94-350.25q-8.22-8.4-16.88-16.23a9.55,9.55,0,0,0-1-.93,10.85,10.85,0,0,0-1.09-1,399.3,399.3,0,0,0-42.36-33.24c-.48-.35-.93-.67-1.41-1s-1-.64-1.41-1c-4.07-2.72-8.2-5.38-12.36-7.94-.77-.48-1.54-1-2.31-1.41s-1.53-1-2.33-1.41q-6-3.65-12.11-7.05a.11.11,0,0,0-.09,0c-.45-.25-.87-.51-1.32-.73a.86.86,0,0,0-.16-.1l-1.25-.67a.88.88,0,0,0-.25-.16,396.3,396.3,0,0,0-90.46-35.9c-.45-.16-.93-.25-1.38-.38s-.93-.23-1.41-.35q-9.88-2.51-19.88-4.45a349.37,349.37,0,0,0-71.18-6.6,22,22,0,0,0-2.44,0c-.06,0-.09,0-.12,0a294.72,294.72,0,0,0-51.69,5.41,241,241,0,0,0-49.63,15.15,195.23,195.23,0,0,0-21.93,11l-1.41-2.46a201,201,0,0,1,19.47-10,240.74,240.74,0,0,1,44.15-14.67,295.88,295.88,0,0,1,60.52-7.3,4.64,4.64,0,0,1,.64,0c.8,0,1.64,0,2.44,0a352.37,352.37,0,0,1,71.72,6.66c6.54,1.28,13.07,2.72,19.54,4.39.48.09.93.19,1.41.32s.92.25,1.37.35a401.28,401.28,0,0,1,89.72,35.32,8.62,8.62,0,0,1,.8.41c.26.13.52.29.77.42a5.71,5.71,0,0,1,.64.35c.32.16.64.35,1,.55a1.71,1.71,0,0,1,.45.22q8.94,4.9,17.65,10.28c.73.48,1.47.93,2.21,1.41s1.5.93,2.24,1.41c2.37,1.5,4.7,3,7,4.58.48.28.93.6,1.41.92a16.94,16.94,0,0,1,1.41,1A400.55,400.55,0,0,1,1803,617.32a12.06,12.06,0,0,1,1.09,1,9.52,9.52,0,0,1,1,.9c5.7,5.15,11.21,10.5,16.59,16C1881.27,696.16,1951.42,806.75,1947.45,987.51Z" transform="translate(-30.74 -424.56)"/><path class="cls-2" d="M1844.89,760.29C1781.05,637.05,1657,540.73,1502.78,524c-123.07-13.35-246.84-15.14-370.45-21.86-130.45-7.09-258.18-28.66-387.09-47.57-82.75-12.13-155.25,5.79-235.49,31.73-109.6,35.43-215.51,149.81-263.3,241.32-115.14,220.48-51.54,497.8,49.92,712.65,5,10.53,39.24,94.28,49.51,94.28h1342c81-105.8,147.31-222.17,184.15-342.32C1915.83,1049.44,1915.37,896.35,1844.89,760.29Z" transform="translate(-30.74 -424.56)"/><path class="cls-2" d="M212.2,1295.07c-52.7-164.31-75.9-307.19-69-424.67,5.76-97.71,32.37-178.87,79.06-241.21,107-142.84,285.69-140,287.49-140l-.07,2.82C508,492,330.63,489.23,224.54,630.91c-46.35,61.9-72.76,142.54-78.49,239.68-6.91,117.13,16.25,259.66,68.83,423.62Z" transform="translate(-30.74 -424.56)"/><rect class="cls-3" x="612.45" y="9.73" width="894.62" height="871.84" rx="30.8"/><path class="cls-4" d="M1507.68,433.07H673.31a31.34,31.34,0,0,0-29.45,20.66A30.89,30.89,0,0,0,642,464.39V1276a31.39,31.39,0,0,0,31.34,31.35h834.37A31.4,31.4,0,0,0,1539,1276V464.39A31.37,31.37,0,0,0,1507.68,433.07Zm28.91,843a28.93,28.93,0,0,1-28.91,28.88H673.31A28.94,28.94,0,0,1,644.4,1276V464.39a28.65,28.65,0,0,1,2.18-11,29,29,0,0,1,26.73-17.86h834.37a28.92,28.92,0,0,1,28.91,28.88Z" transform="translate(-30.74 -424.56)"/><rect class="cls-5" x="1213.75" y="111.31" width="190.66" height="13.91"/><rect class="cls-6" x="1153.86" y="171.19" width="303.77" height="13.91"/><rect class="cls-6" x="1153.86" y="212.34" width="273.6" height="13.91"/><rect class="cls-4" x="1153.86" y="253.48" width="242.18" height="13.91"/><rect class="cls-4" x="1153.86" y="294.63" width="303.77" height="13.91"/><rect class="cls-4" x="1153.86" y="335.78" width="224.23" height="13.91"/><rect class="cls-6" x="676.94" y="561.47" width="291.55" height="13.91"/><rect class="cls-4" x="677.77" y="599.35" width="753.83" height="13.91"/><rect class="cls-1" x="677.39" y="111.31" width="351.09" height="371.56"/><rect class="cls-6" x="709.14" y="356.75" width="24.41" height="85.45"/><rect class="cls-7" x="753.01" y="368.8" width="24.41" height="73.41"/><rect class="cls-6" x="796.87" y="322.24" width="24.41" height="119.96"/><rect class="cls-7" x="840.73" y="330.83" width="24.41" height="111.37"/><rect class="cls-6" x="884.6" y="292.39" width="24.41" height="149.81"/><rect class="cls-7" x="928.46" y="271.62" width="24.41" height="170.58"/><rect class="cls-6" x="972.32" y="253.1" width="24.41" height="189.1"/><polygon class="cls-6" points="760.95 309.9 714.85 291.46 715.73 289.26 760.52 307.18 806.16 269.41 848.73 270.4 977.06 191.15 978.31 193.17 849.38 272.79 806.99 271.8 760.95 309.9"/><rect class="cls-6" x="704.7" y="184.92" width="50.08" height="20.82"/><rect class="cls-6" x="771.33" y="196.86" width="46.85" height="2.44"/><circle class="cls-1" cx="1371.75" cy="453.6" r="54.68"/><path class="cls-1" d="M1246.69,932.83a54.69,54.69,0,0,1-8.46-108.72,56,56,0,0,1,8.46-.64,54.68,54.68,0,0,1,0,109.36Z" transform="translate(-30.74 -424.56)"/><path class="cls-6" d="M1246.69,878.16l-8.46-54a56,56,0,0,1,8.46-.64,54.48,54.48,0,0,1,40.7,18.2Z" transform="translate(-30.74 -424.56)"/><rect class="cls-1" x="683.35" y="665.33" width="750.29" height="144.21"/><path class="cls-6" d="M714.46,1090.2v146h752.1v-146Zm750.28,144.22H716.29V1092h748.45Z" transform="translate(-30.74 -424.56)"/><rect class="cls-6" x="684.63" y="781.03" width="750.27" height="1.83"/><rect class="cls-6" x="684.63" y="752.18" width="750.27" height="1.83"/><rect class="cls-6" x="684.63" y="723.34" width="750.27" height="1.83"/><rect class="cls-6" x="684.63" y="694.5" width="750.27" height="1.83"/><rect class="cls-6" x="1308.94" y="666.57" width="1.83" height="144.21"/><rect class="cls-6" x="1183.9" y="666.57" width="1.83" height="144.21"/><rect class="cls-6" x="1058.85" y="666.57" width="1.83" height="144.21"/><rect class="cls-6" x="933.81" y="666.57" width="1.83" height="144.21"/><rect class="cls-6" x="808.76" y="666.57" width="1.83" height="144.21"/><path class="cls-5" d="M736,1212.5c10.91-15.19,13.27-34.76,23-50.76,4.75-7.81,11-15.55,19.75-19,15-6,18.84,13.35,19.16,24.11.47,15.83-2.16,33,10.91,44.88,4.37,4,10.14,6.32,16,4.75,7.06-1.87,11.45-8.34,14.95-14.28,10-17,16.36-36.51,23.31-54.91,3.51-9.29,8-21.2,17.17-26.4,13.1-7.43,14.54,9,14.51,17.65,0,9.49.06,19,.14,28.46,0,4.56-.89,14.07,4.46,16.61,3.16,1.49,5.66-1.36,7.42-3.66,1.54-2,2.61-4.32,4.15-6.31s2.73-3,5.33-3.21c2.4-.2,3.54-.23,5.17,2a13.14,13.14,0,0,1,1.71,4.4c1.88,7.11,0,15.18,4,21.75,2.24,3.66,7.07,7.31,11.61,6.59,9.16-1.44,11.48-16.37,12.58-23.55,1.47-9.59,2.85-19.14,5.49-28.51s6.12-20.7,13.29-27.76c2.73-2.68,6.49-5.36,10.53-4.91,5.91.66,7.75,7.32,9.2,12.1a115.62,115.62,0,0,1,5.19,33.33c0,7.79-2.27,17.53,2.92,24.27a11.9,11.9,0,0,0,12,4.57c6.6-1.65,8.2-8.06,9.54-13.88a25.87,25.87,0,0,1,.9-3.46c1.29-3.28,1.8-3.66,5.34-3.81,3.9-.15,4,.76,4.67,4s.31,6.54,1.29,9.76c1.23,4.06,4.09,7.81,8.8,6.4,4.34-1.29,6.67-5.94,8.1-9.86,4.13-11.29,3.74-23.79,4.36-35.6.41-7.82,1-16.23,4.65-23.33,2.35-4.62,9.29-12.1,14.66-7.23,7,6.35,6.3,21.81,6.46,30.34.35,18.32-2.73,36.7-.17,55,1,6.83,2.9,17,10.47,19.6,10.49,3.57,18.22-7.85,21-16.2,2.22-6.64,2.73-13.59,4.3-20.37.83-3.57,2.1-10.08,7-8,4.19,1.75,5.93,7.69,9.61,10.37,11.92,8.67,19.21-8.24,20.61-17.39,2-13.37-.06-28.11,5-40.9,1.26-3.24,3.25-6.67,6.22-8.63,7.28-4.79,14.45,1.84,16.64,8.62,1.67,5.14,1.35,10.91,1.45,16.25.11,5.79.26,11.58.37,17.37.18,9.57-.68,19.34-.07,28.88.43,6.62,2.94,12.66,8.66,16.4,14.38,9.39,31.19-5.26,40.36-15.54,10.42-11.68,17.43-25.57,22.82-40.13,2.73-7.37,5.46-14.9,9.73-21.54,2.34-3.65,8.84-12.39,14.19-10,3.47,1.57,4.63,7.86,5.38,11.1a115.67,115.67,0,0,1,2.32,16.67c.86,10.64.93,21.3,1.12,32,.17,9,.93,22.63,11,26.29,15.67,5.7,23.14-16.73,27.47-27.09,3.6-8.58,8-20.22,16.33-25.33,7.1-4.34,12,2.35,14.67,8.31a47.15,47.15,0,0,1,3.9,18.28c.06,4.34-.28,9.79,4.48,11.89,10.39,4.58,19.86-12.61,23.9-19.39,3.68-6.18,6.48-12.65,9.57-19.13,3.87-8.15,16.58-23.71,21.86-8.11,2,5.89,1.3,12.25.9,18.33-.44,6.9-.94,13.82-.72,20.74.25,8,1.7,25.44,13.76,23.58,7.31-1.12,14.84-9.17,20.32-13.74a266.77,266.77,0,0,0,22.77-21.45c1.09-1.15-.64-2.88-1.72-1.73a268.51,268.51,0,0,1-22.78,21.46,168,168,0,0,1-13.31,10.34c-6,4.07-12,2.22-14.36-4-4.73-12.23-1.85-27.36-1.22-40.08.38-7.57-.57-24.89-12.16-22.78-6.94,1.25-11.74,8.74-14.64,14.52-3.29,6.55-6,13.29-9.69,19.64s-7.9,13.8-14,18c-4.61,3.19-10,1.68-10.53-4.52-.24-2.83.06-5.65-.27-8.49-1-8.2-4.08-21.76-13-25.08-12.33-4.61-21.31,16.13-24.82,24.25-3.59,8.32-6.37,19-13,25.45-4.69,4.57-12.28,6.16-17.07.87-3.5-3.87-4.38-10-4.87-14.94-1.91-19.32,1-39.28-4.54-58.22-1.59-5.46-4.61-12.21-11.37-9.82-11.34,4-16.5,18.74-20.36,28.88-6.17,16.22-13,31.74-25,44.64-6.94,7.44-17,16.63-27.86,16.41-14.26-.28-16-14.51-15.63-25.41.41-10.66,0-21.35-.25-32-.18-8.59,1-18.83-3.27-26.69-2.7-5-8.43-9-14.34-7.94-5,.89-8.75,5.61-10.78,10-5.46,11.7-4,25.81-5.24,38.33-.71,7.15-2,19.42-10.35,21.91-10.53,3.13-10.86-12.69-19.72-13-9.39-.32-9.46,22.23-11.09,28.16-2,7.33-5.81,16.06-14.15,17.65-5.16,1-8.59-2.26-10.59-6.7-4.56-10.08-4-22.78-3.71-33.59.21-8.06.93-16.11,1.07-24.18.15-8.7,1.88-46.06-14.71-42.05-11.48,2.77-14.42,17.59-15.44,27.41-1.36,13.09-.21,26.49-3.94,39.27-1,3.33-2.26,7.16-5,9.42s-6.35.34-7.78-2.69c-1-2-.92-4.64-1.11-6.83-.33-3.72-.79-9.26-4.94-10.82-4.79-1.8-8.72,3.09-10.16,7-1.79,4.87-1.21,11.29-6.16,14.51s-10.8.19-13.19-4.61c-2.5-5-1.6-11.08-1.36-16.46a101.51,101.51,0,0,0-.61-16.35c-1.07-9.2-2.79-19.29-6.57-27.81-5.22-11.76-16.85-8.63-23.77-.19-11.75,14.34-14.71,36.13-17.25,53.81-.82,5.67-1.9,11.56-4.43,16.75-1.31,2.66-3.17,5.8-6.34,6.34-5.29.89-9.67-5.21-10.83-9.55-1.89-7-.11-32.07-14.79-24.39-4.56,2.38-5,8.08-8.89,10.94-6.08,4.47-6.45-5.42-6.49-9.25-.07-5.74-.1-11.48-.15-17.23-.07-7.71.52-15.72-.42-23.39-.6-4.9-2.09-10.61-7.15-12.63-13.69-5.46-23.9,16.63-27.57,25.89-7.79,19.64-14,40.63-25,58.8-6,10-16.27,17.46-26.58,8.12-7.36-6.68-10.07-16.48-10.26-26.08-.26-12.48,3.48-37.71-11.48-44.2-13-5.66-26.85,12.33-32.37,21.58-9.42,15.8-11.86,35.1-22.56,50-.92,1.28,1.2,2.5,2.11,1.23Z" transform="translate(-30.74 -424.56)"/><rect class="cls-8" x="1194.71" y="980.91" width="242.78" height="169.97" rx="13.12"/><rect class="cls-9" x="1200.06" y="1054.56" width="232.07" height="2.69"/><path class="cls-9" d="M1327.34,1479.13v5.12a19.5,19.5,0,0,0,39,0v-5.12Zm36.31,5.12a16.81,16.81,0,0,1-33.62,0v-2.47h33.62Z" transform="translate(-30.74 -424.56)"/><path class="cls-9" d="M1392.76,1414.15h-2.69v-34.86a8.53,8.53,0,0,0-8.52-8.52h-69.43a8.52,8.52,0,0,0-8.51,8.52v34.86h-2.69v-34.86a11.21,11.21,0,0,1,11.2-11.2h69.43a11.22,11.22,0,0,1,11.21,11.2Z" transform="translate(-30.74 -424.56)"/><rect class="cls-9" x="1265.04" y="980.91" width="13.1" height="14.11"/><rect class="cls-9" x="1354.08" y="980.91" width="13.1" height="14.11"/><rect class="cls-8" x="574.02" y="1006.64" width="173.05" height="144.24"/><rect class="cls-9" x="561.28" y="996.43" width="198.53" height="30.29"/><path class="cls-10" d="M777.81,1575.44h-173V1450.83S674.84,1556.17,777.81,1575.44Z" transform="translate(-30.74 -424.56)"/><path class="cls-1" d="M1738.66,426a107.29,107.29,0,0,0-60.19,196.11l-4.12,49.43,40.27-33.69a107.29,107.29,0,1,0,24-211.85Z" transform="translate(-30.74 -424.56)"/><path class="cls-11" d="M1738.68,424.56a108.84,108.84,0,0,0-108.39,100.32c-.07,1-.13,1.89-.2,2.85-.09,1.82-.12,3.68-.12,5.54a108.67,108.67,0,0,0,47,89.53l-4.35,52L1715,639.35a108,108,0,0,0,39.68,1.44A107.71,107.71,0,0,0,1802.81,621c.77-.54,1.57-1.15,2.31-1.76a108.66,108.66,0,0,0-66.44-194.65Zm0,214.6a106.39,106.39,0,0,1-23.73-2.72l-.71-.13-38.2,32,3.91-46.87-.7-.45a105.87,105.87,0,0,1-42.78-60.07,104.26,104.26,0,0,1-3.69-27.6c0-1.61,0-3.21.1-4.81.06-1,.13-2,.19-2.91A105.87,105.87,0,1,1,1803,617.32l-2.31,1.73a105.48,105.48,0,0,1-48.7,19.28A108.38,108.38,0,0,1,1738.68,639.16Z" transform="translate(-30.74 -424.56)"/><rect class="cls-1" x="1694.28" y="131.29" width="31.9" height="33.11"/><path class="cls-11" d="M1723.59,554.43v35.93h34.75V554.43Zm31.93,33.11h-29.11V557.25h29.11Z" transform="translate(-30.74 -424.56)"/><path class="cls-1" d="M1766.85,533a25.88,25.88,0,1,0-48.33,12.87,45.62,45.62,0,0,1,6.5,22.78v5.88h31.9v-6.12a44.68,44.68,0,0,1,6.45-22.45A25.76,25.76,0,0,0,1766.85,533Z" transform="translate(-30.74 -424.56)"/><path class="cls-11" d="M1759.81,513.22a27.11,27.11,0,0,0-20.14-7.52,27.68,27.68,0,0,0-26,26.93,27.16,27.16,0,0,0,3.65,13.92,45.9,45.9,0,0,1,5.47,14.32,26.1,26.1,0,0,1,.55,3.49,32,32,0,0,1,.25,4.26v7.3h34.75v-7.53a43.11,43.11,0,0,1,6.24-21.74,27.29,27.29,0,0,0-4.77-33.43Zm-1.89,41.21a24.33,24.33,0,0,0-1,3.3,40.67,40.67,0,0,0-1.41,10.66v4.71h-29.11v-4.48c0-.87,0-1.73-.09-2.6a30.51,30.51,0,0,0-.36-3.42,41.53,41.53,0,0,0-1-4.77,30.69,30.69,0,0,0-1-3.4,52.17,52.17,0,0,0-4.23-9.28,24.46,24.46,0,0,1,20-36.64A24.53,24.53,0,0,1,1765.45,533a24.46,24.46,0,0,1-3.3,12.23A49.93,49.93,0,0,0,1757.92,554.43Z" transform="translate(-30.74 -424.56)"/><path class="cls-1" d="M1735.07,529.93c-2,2.86-5.37,4-7.52,2.45s-2.25-5-.25-7.9,5.37-4,7.51-2.45S1737.07,527.07,1735.07,529.93Z" transform="translate(-30.74 -424.56)"/><path class="cls-11" d="M1735.63,520.87a5.65,5.65,0,0,0-5.05-.57,9.25,9.25,0,0,0-6.12,8.67,5.51,5.51,0,0,0,2.27,4.55,5.13,5.13,0,0,0,3,1,6.6,6.6,0,0,0,2-.35,8.59,8.59,0,0,0,4.42-3.39,8.89,8.89,0,0,0,1.7-5.32A5.74,5.74,0,0,0,1735.63,520.87Zm-4.7,10.57a2.81,2.81,0,0,1-2.56-.22,2.75,2.75,0,0,1-1.09-2.31,6.13,6.13,0,0,1,1.18-3.62,6.2,6.2,0,0,1,3-2.34,4.24,4.24,0,0,1,1.15-.19,2.47,2.47,0,0,1,1.41.42,2.88,2.88,0,0,1,1.09,2.34v.12a6,6,0,0,1-1.18,3.46A5.88,5.88,0,0,1,1730.93,531.44Z" transform="translate(-30.74 -424.56)"/><rect class="cls-11" x="1697.03" y="484.85" width="2.82" height="20.52" transform="translate(223.83 1092.84) rotate(-51.55)"/><rect class="cls-11" x="1737.59" y="460.73" width="2.82" height="27.55" transform="translate(-45.04 -368.66) rotate(-1.83)"/><rect class="cls-11" x="1768.45" y="489.77" width="23.22" height="2.82" transform="translate(130.86 955.7) rotate(-44.21)"/><path class="cls-1" d="M392.37,561.5a94.33,94.33,0,1,0-69.6,91l32.75,27.4-3.43-41.14A94.2,94.2,0,0,0,392.37,561.5Z" transform="translate(-30.74 -424.56)"/><path class="cls-11" d="M393.77,561.51c0-3.17-.16-6.31-.44-9.38a95.23,95.23,0,0,0-11-35.93c-.45-.83-.89-1.67-1.41-2.5A95.7,95.7,0,1,0,226,624.43c.61.7,1.25,1.41,1.92,2.11A95.26,95.26,0,0,0,291.76,657c2.08.16,4.16.22,6.27.22a95.32,95.32,0,0,0,24.4-3.17l34.78,29.11-3.65-43.71A95.89,95.89,0,0,0,393.77,561.51Zm-42.49,76.14-.67.45,3.23,38.59L323.1,651l-.7.2A92.45,92.45,0,0,1,298,654.43c-1.41,0-2.82,0-4.19-.13a92.34,92.34,0,0,1-64.21-30c-.67-.7-1.31-1.41-1.92-2.14A92.87,92.87,0,1,1,378.24,514.69a28,28,0,0,1,1.44,2.5,91.22,91.22,0,0,1,11,37.08c.22,2.37.32,4.8.32,7.24A93.09,93.09,0,0,1,351.28,637.65Z" transform="translate(-30.74 -424.56)"/><polygon class="cls-11" points="266.06 166.38 239.31 139.63 241.3 137.63 265.13 161.46 292.75 98.55 295.33 99.69 266.06 166.38"/><path class="cls-12" d="M820.56,933.2l-19.83,21.59L589.92,1184.46c-6.49,7.07-16.09,8.82-21.6,3.94l0,0c-5.52-4.88-4.94-14.62,1.28-21.91L771.51,929.76,790.94,907Z" transform="translate(-30.74 -424.56)"/><path class="cls-13" d="M820.56,933.2l-19.83,21.59a79.36,79.36,0,0,1-17.09-11.59,80.59,80.59,0,0,1-12.13-13.44L790.94,907Z" transform="translate(-30.74 -424.56)"/><path class="cls-1" d="M789.07,951.71a8.46,8.46,0,1,1-.73-11.94A8.47,8.47,0,0,1,789.07,951.71Z" transform="translate(-30.74 -424.56)"/><circle class="cls-12" cx="854.4" cy="405.83" r="133.9"/><circle class="cls-1" cx="852.04" cy="402.46" r="108.61"/><g class="cls-14"><rect class="cls-15" x="773.84" y="439.17" width="34.04" height="208.95"/><rect class="cls-16" x="835.02" y="411.62" width="34.04" height="237.92"/><rect class="cls-15" x="896.2" y="382.03" width="34.04" height="263.75"/><rect class="cls-15" x="763.7" y="791.53" width="163.78" height="4.23" transform="translate(-232.34 -129.21) rotate(-17.74)"/><path class="cls-15" d="M913.24,786.86l-3.45-2.45L920.07,770l-14.88-5.09,1.37-4L923,766.51a2.92,2.92,0,0,1,1.93,2,3,3,0,0,1-.58,2.8Zm8.36-16.36.14,0Zm-.6-1.83-.06.09Z" transform="translate(-30.74 -424.56)"/></g><rect class="cls-17" x="54" y="1148.07" width="1884.52" height="2.82"/><path class="cls-18" d="M43.26,1348c0,104.13,73.05,226.44,189.12,226.44,71.92,0,131.11-44,165.71-102.9,21.27-36.14,33.27-77.88,33.27-118.46,0-106.68-116.43-101.59-190.22-101.59-80.92,0-177-6.2-194.9,69.16A116.6,116.6,0,0,0,43.26,1348Z" transform="translate(-30.74 -424.56)"/><path class="cls-19" d="M43.26,1348c0,104.13,73.05,226.44,189.12,226.44,71.92,0,131.11-44,165.71-102.9C326,1505.51,120.68,1575.79,46.24,1320.69A116.6,116.6,0,0,0,43.26,1348Z" transform="translate(-30.74 -424.56)"/><path class="cls-20" d="M330.91,1292.73c15.08,24.58,4.42,59.56-21.47,73.3-27.37,14.52-64.6,1.5-74.77-27.36-9.66-27.41,9-58.13,35.64-66.75C291.71,1265,318.38,1272.29,330.91,1292.73Z" transform="translate(-30.74 -424.56)"/><path class="cls-18" d="M436.58,1360.39c-55.28,8.38-91.14,1.48-80.1-38.14a114.64,114.64,0,0,1,10-23.4c16.1-29.56,214.55-181,230.5-101.55,4.12,20.53-.28,40.68-10.18,59.46C558.35,1310.63,484.62,1353.12,436.58,1360.39Z" transform="translate(-30.74 -424.56)"/><path class="cls-19" d="M436.58,1360.39c-55.28,8.38-91.14,1.48-80.1-38.14,31.19,6.69,100.18,5.32,230.29-65.49C558.35,1310.63,484.62,1353.12,436.58,1360.39Z" transform="translate(-30.74 -424.56)"/><path class="cls-20" d="M496.58,1238.91c-31.6,20.79-87.26,53.28-91.3,47.48-3.64-5.24,34.2-42.33,81.14-67,26.15-13.73,57.85-25,60.18-20.7C549.51,1204.09,506.41,1232.45,496.58,1238.91Z" transform="translate(-30.74 -424.56)"/><path class="cls-18" d="M31.9,1115.51c7.44,103.17,244,137.26,354.63,74.9,30.74-17.32,51.76-42.1,55.46-74.9,17-150.86-82.87-289-197.61-289-41.6,0-90.44,15.92-130.89,51.19C61.65,922.87,23.53,999.75,31.9,1115.51Z" transform="translate(-30.74 -424.56)"/><path class="cls-21" d="M370,1134.7a37.55,37.55,0,0,0,21.17-17c7.43-12.65,6.52-26.71,3.08-25.91-5.35,1.26-13.46,18.06-27.48,22.62-16.11,5.25-30.63-1.57-39,.76-.38.1-.74.21-1.1.33C318.23,1118.22,338.35,1145,370,1134.7Z" transform="translate(-30.74 -424.56)"/><path class="cls-19" d="M31.9,1115.51c7.44,103.17,244,137.26,354.63,74.9-67.6,11.22-268.85,35.86-305-61.1-31.14-83.38,7.36-194.63,32-251.59C61.65,922.87,23.53,999.75,31.9,1115.51Z" transform="translate(-30.74 -424.56)"/><path class="cls-21" d="M194.27,1040c4.33,20.24,26.74,28.49,53.77,30.46,28.47,2.08,62.08-2.8,85.09-8,32.95-7.42,95.27-27.47,113.21-55.93,4.21-6.67,6-13.8,4.37-21.33-4.69-21.93-16-44.31-32.19-55.89s-37.29-12.32-57.32-8L249.85,945c-23.29,5-41.45,21.42-50.73,42.93A85.89,85.89,0,0,0,194.27,1040Z" transform="translate(-30.74 -424.56)"/><path class="cls-22" d="M194.27,1040c4.33,20.24,26.74,28.49,53.77,30.46,28.47,2.08,62.08-2.8,85.09-8,32.95-7.42,95.27-27.47,113.21-55.93-65.88,11.76-179.65,23.43-247.22-18.55A85.89,85.89,0,0,0,194.27,1040Z" transform="translate(-30.74 -424.56)"/><path class="cls-23" d="M289.86,946.55c.2,2.49,16,5.09,31.4,3.43,25-2.68,45.58-16.19,44.6-19.18-.45-1.37-16,1.77-47,8.1C294,944,289.75,945.24,289.86,946.55Z" transform="translate(-30.74 -424.56)"/><path class="cls-24" d="M360.78,974.31a33.84,33.84,0,1,0,3-13.83A33.82,33.82,0,0,0,360.78,974.31Z" transform="translate(-30.74 -424.56)"/><path class="cls-25" d="M406,935.8a39.39,39.39,0,0,0-11.4-1.67,40.21,40.21,0,0,0-36.67,23.73,39.78,39.78,0,0,0-3.52,16.46,40.19,40.19,0,0,0,36.54,40,33.35,33.35,0,0,0,3.65.2,39.74,39.74,0,0,0,12.48-2,40.52,40.52,0,0,0,23.32-20,34.5,34.5,0,0,0,1.76-3.91A40.21,40.21,0,0,0,406,935.8Zm20.2,50.56a33.82,33.82,0,1,1-62.47-25.87l0,0a31,31,0,0,1,2.24-4.19c.45-.67.9-1.35,1.38-2a28.59,28.59,0,0,1,3.1-3.65c.55-.54,1.12-1.08,1.73-1.63a29.74,29.74,0,0,1,3.78-2.91,40.35,40.35,0,0,1,4.2-2.37,8.87,8.87,0,0,1,1.25-.51,10,10,0,0,1,1-.42c.73-.29,1.5-.55,2.27-.8a33.14,33.14,0,0,1,10-1.47h.06a33.14,33.14,0,0,1,14.57,3.36c.48.22,1,.48,1.44.73l1.19.68c1,.6,2,1.28,2.94,2a27.9,27.9,0,0,1,2.47,2,0,0,0,0,0,0,0c.39.39.8.74,1.16,1.12a34.45,34.45,0,0,1,5,6.37,33.68,33.68,0,0,1,4.9,17.52,34.33,34.33,0,0,1-1.15,8.71A30.64,30.64,0,0,1,426.21,986.36Z" transform="translate(-30.74 -424.56)"/><path class="cls-26" d="M363.76,960.45c12.63,30.52,43.95,29.57,62.37,26a33.8,33.8,0,0,0-62.37-26Z" transform="translate(-30.74 -424.56)"/><circle class="cls-20" cx="407.3" cy="963.09" r="11.23" transform="translate(-241.12 -305.21) rotate(-13.28)"/><path class="cls-20" d="M368.08,980.88c-1.84,1.23.66,13,9,17.52,7.44,4,17.29,1.07,17.52-1.1.17-1.59-4.94-2-13.48-7.2C372.16,984.66,369.36,980,368.08,980.88Z" transform="translate(-30.74 -424.56)"/><path class="cls-24" d="M233.46,1008.13a33.84,33.84,0,1,0,3-13.83A33.45,33.45,0,0,0,233.46,1008.13Z" transform="translate(-30.74 -424.56)"/><path class="cls-25" d="M267.29,968a40.16,40.16,0,0,0-39.67,33.78,39.18,39.18,0,0,0-.51,6.4,40.19,40.19,0,0,0,79.44,8.62,40.71,40.71,0,0,0,.93-8.62A40.23,40.23,0,0,0,267.29,968Zm31.61,52.22a33.82,33.82,0,0,1-65.42-12,30.19,30.19,0,0,1,.29-4.26,33.13,33.13,0,0,1,2.65-9.57s0,0,0-.06a33.53,33.53,0,0,1,5.12-8.07c.51-.61,1.06-1.19,1.6-1.73a33.6,33.6,0,0,1,24.18-10.12h.06a35.64,35.64,0,0,1,6.66.67,36,36,0,0,1,7.91,2.69c.9.45,1.79.9,2.62,1.41,1,.61,2,1.28,2.95,2a27.79,27.79,0,0,1,2.47,2s0,0,0,0c.38.38.8.73,1.15,1.12a34.17,34.17,0,0,1,5,6.37,33.71,33.71,0,0,1,4.9,17.51,32.78,32.78,0,0,1-1,8.17A30.47,30.47,0,0,1,298.9,1020.17Z" transform="translate(-30.74 -424.56)"/><path class="cls-26" d="M236.46,994.23c12.63,30.52,43.94,29.61,62.35,26.06a33.8,33.8,0,0,0-62.35-26.06Z" transform="translate(-30.74 -424.56)"/><circle class="cls-20" cx="279.98" cy="996.9" r="11.23" transform="translate(-252.29 -333.56) rotate(-13.28)"/><path class="cls-20" d="M240.76,1014.69c-1.83,1.24.67,13,9,17.52,7.43,4,17.29,1.08,17.52-1.09.16-1.59-4.94-2-13.48-7.2C244.85,1018.47,242,1013.83,240.76,1014.69Z" transform="translate(-30.74 -424.56)"/><path class="cls-18" d="M225.27,864.58c.15-1,3.38-23.46-7.66-51.28C207.52,787.85,183,753,123.69,731.23l-3.83,10.48c44.26,16.21,73.59,41.49,87.17,75.16,10.12,25.11,7.24,45.85,7.21,46Z" transform="translate(-30.74 -424.56)"/><circle class="cls-21" cx="109.02" cy="732.24" r="25.97" transform="translate(-133.99 -401.54) rotate(-8.19)"/><circle class="cls-23" cx="105.64" cy="725.12" r="13.94" transform="translate(-653.62 379.43) rotate(-87.89)"/><path class="cls-20" d="M178.34,870.29c-3.66,22.05,36.69,51.51,75.42,55.1,34.38,3.18,76.35-13.23,78.52-34.33,2.3-22.36-40.31-48.2-78.52-51C222.68,837.79,181.74,849.83,178.34,870.29Z" transform="translate(-30.74 -424.56)"/></svg>