<svg id="Layer_1" data-name="Layer 1" xmlns="http://www.w3.org/2000/svg" viewBox="0 0 1782.86 1506.16"><defs><style>.cls-1{fill:#080029;}.cls-2{fill:#fff;}.cls-3{fill:#59009f;}.cls-4{fill:none;}.cls-5{fill:#6333ab;}.cls-6{fill:#5f70e8;}.cls-7{fill:#5f6bde;}.cls-8{fill:#b1c5ed;}.cls-9{fill:#2a2981;}.cls-10{fill:#39337a;}.cls-11{fill:#443160;}.cls-12{fill:#465dd2;}.cls-13{fill:#332f72;}.cls-14{fill:#2a29bd;}.cls-15,.cls-16{fill:#32306d;}.cls-16{stroke:#59009f;stroke-linecap:round;stroke-miterlimit:10;stroke-width:4px;}</style></defs><path class="cls-1" d="M347.57,1023.13C303.17,806.77,65.44,772.34,68.32,668.41c6.9-249.35,1393.11-701,1712.31-210.18,157.61,242.38,28.56,673.79-166,932.1-49.3,65.44-145.22,189.78-317,271.71-408.68,194.92-968.47,17-1033-223.8C226,1294.52,386.49,1212.8,347.57,1023.13Z" transform="translate(-68.29 -239.01)"/><path class="cls-2" d="M766.63,596.18h0Z" transform="translate(-68.29 -239.01)"/><polygon class="cls-2" points="643 327.46 643 327.47 643.01 327.46 643 327.46"/><path class="cls-3" d="M1495.92,932.38c-1-.06-2-.06-3.08-.06h-.33a26.58,26.58,0,0,0-2.83.1c-.68,0-1.36.06-2,.13-1.63.06-3.25.22-4.85.42a81.07,81.07,0,0,0-68.24,59.6c-.45,1.62-.84,3.31-1.17,5s-.61,3.41-.84,5.17a79.83,79.83,0,0,0-.68,10.56,80.95,80.95,0,1,0,84.06-80.89Zm-3.08,153.09a72.21,72.21,0,0,1-70.91-85.85v0c.16-.78.32-1.56.52-2.34a72.18,72.18,0,1,1,70.39,88.22Z" transform="translate(-68.29 -239.01)"/><path class="cls-3" d="M1140.26,769.65v0c-.36-1.39-.78-2.76-1.27-4.12a5.91,5.91,0,0,0-.19-.69c-.1-.32-.23-.61-.33-.94a8.21,8.21,0,0,0-.29-.88c-.36-1-.72-1.91-1.11-2.85a94.71,94.71,0,0,0-79.45-59.31c-1.62-.13-3.25-.23-4.87-.29-1.14,0-2.31-.07-3.48-.07-.45,0-.94,0-1.4,0a94.52,94.52,0,0,0-85.72,58c-.65,1.49-1.24,3-1.79,4.51a2,2,0,0,1-.1.26l-.06.2c0,.13-.1.26-.13.42a94.19,94.19,0,0,0,0,62.13c.1.3.19.59.29.88a94.45,94.45,0,0,0,173.4,10.24c.75-1.46,1.46-2.93,2.08-4.45s1.3-3,1.85-4.55a12.3,12.3,0,0,0,.49-1.24,7,7,0,0,0,.29-.88,94.1,94.1,0,0,0,1.79-56.34Zm-18.52-10.73h-39c-2.4-16.6-6.56-31.49-12.35-42.11A81.3,81.3,0,0,1,1121.74,758.92Zm-50,36c0,7.7-.32,15.24-1,22.45h-43c-.65-7.21-1-14.75-1-22.45s.32-15.24,1-22.46h43C1071.4,779.69,1071.72,787.23,1071.72,794.93ZM1035,735.07c4.84-14.56,10.62-21.06,14.23-21.06s9.39,6.5,14.23,21.06a147.74,147.74,0,0,1,5.59,23.85h-39.64A147.74,147.74,0,0,1,1035,735.07Zm-6.92-18.26c-5.79,10.62-9.95,25.51-12.35,42.11h-39A81.3,81.3,0,0,1,1028.12,716.81Zm-59.76,78.12a80,80,0,0,1,3.18-22.46h42.67c-.62,7.38-1,14.92-1,22.46s.33,15.08,1,22.45H971.54A79.87,79.87,0,0,1,968.36,794.93Zm8.44,36h39c2.4,16.61,6.56,31.49,12.35,42.12A81.41,81.41,0,0,1,976.8,830.93Zm86.7,23.86c-4.84,14.55-10.62,21.05-14.23,21.05s-9.39-6.5-14.23-21.05a147.62,147.62,0,0,1-5.59-23.86h39.64A147.62,147.62,0,0,1,1063.5,854.79Zm6.92,18.26c5.79-10.63,9.95-25.51,12.35-42.12h39A81.41,81.41,0,0,1,1070.42,873.05ZM1127,817.38h-42.67c.62-7.37.94-14.91.94-22.45s-.32-15.08-.94-22.46H1127a80.87,80.87,0,0,1,0,44.91Z" transform="translate(-68.29 -239.01)"/><path class="cls-4" d="M704.69,648.36,960.37,763" transform="translate(-68.29 -239.01)"/><rect class="cls-3" x="827.66" y="565.58" width="9.75" height="280.2" transform="translate(-220.29 937.63) rotate(-65.85)"/><path class="cls-3" d="M1376.25,637.72c-78.6,50.45-167.46,82-246.06,132.5Z" transform="translate(-68.29 -239.01)"/><path class="cls-3" d="M1132.82,774.32l-5.26-8.2c39.53-25.38,82.23-46.3,123.52-66.53,41-20.11,83.48-40.9,122.54-66l5.27,8.21c-39.54,25.38-82.24,46.3-123.53,66.52C1214.32,728.45,1171.88,749.24,1132.82,774.32Z" transform="translate(-68.29 -239.01)"/><path class="cls-4" d="M1053.86,549.87q-.6,80.14-1.18,160.31" transform="translate(-68.29 -239.01)"/><rect class="cls-3" x="973.11" y="625.15" width="160.32" height="9.75" transform="translate(347.08 1439.53) rotate(-89.57)"/><path class="cls-4" d="M640.54,969.28,954,809.5" transform="translate(-68.29 -239.01)"/><rect class="cls-3" x="621.35" y="884.51" width="351.79" height="9.75" transform="translate(-385.35 220.33) rotate(-27.02)"/><line class="cls-4" x1="1064.63" y1="591.92" x2="1352.32" y2="762.82"/><rect class="cls-3" x="1271.9" y="749.07" width="9.75" height="334.63" transform="translate(-231.46 1307.04) rotate(-59.29)"/><polyline class="cls-4" points="499.98 666.79 500.5 661.92 509.63 574.09 510.63 564.4"/><polyline class="cls-4" points="513.85 533.43 514.86 523.75 523.24 443.29 523.6 439.75"/><path class="cls-3" d="M580.1,803.44a14.28,14.28,0,0,0,3.77-.49l-1,10.08-9.2,88.45-.52,4.84-4.84-.52-4.84-.48.48-4.65,9.2-88.45,1-10a14.77,14.77,0,0,0,4.78,1.17C579.32,803.44,579.71,803.44,580.1,803.44Z" transform="translate(-68.29 -239.01)"/><path class="cls-3" d="M596.77,679.28l-.59,5.72L588,763.83l-1,10.07a16,16,0,0,0-4.77-1.46,13.85,13.85,0,0,0-2-.13,14.08,14.08,0,0,0-2.86.29l1-10L587,679.24l.1-1,4.84.49Z" transform="translate(-68.29 -239.01)"/><polyline class="cls-4" points="919.4 263.43 919.37 263.43 917.02 263.88 800.01 286.34 790.39 288.19"/><polyline class="cls-4" points="759.94 294.04 750.36 295.86 625.47 319.84 619.04 321.07"/><path class="cls-3" d="M828.23,533.05a15.37,15.37,0,0,0,1.34,4.71l-9.75,1.88-122.38,23.5-9.16,1.75-.95-4.81-.91-4.77,3.22-.62L818.42,530,828.49,528a15.5,15.5,0,0,0-.35,3.22A17.44,17.44,0,0,0,828.23,533.05Z" transform="translate(-68.29 -239.01)"/><path class="cls-3" d="M988.6,507.24l-1.17.23L869,530.22l-9.74,1.85a7.31,7.31,0,0,0,0-.81,16.45,16.45,0,0,0-2.63-8.61l10.07-1.95,116.82-22.42,3.22-.62.91,4.77Z" transform="translate(-68.29 -239.01)"/><polyline class="cls-4" points="1064.62 254.17 1069.04 255.85 1169.78 294.2 1178.94 297.71"/><polyline class="cls-4" points="1207.76 308.66 1216.93 312.17 1309.51 347.43 1313.6 348.99 1313.63 348.99"/><path class="cls-3" d="M1239.89,528.69l9.23,3.51a13.9,13.9,0,0,0-1.89,4.52,14.28,14.28,0,0,0-.48,3.7c0,.46,0,.88.06,1.33l-9.72-3.7-101.32-38.57-4.58-1.76,1.72-4.55,1.76-4.55,3.93,1.5Z" transform="translate(-68.29 -239.01)"/><path class="cls-3" d="M1383.65,583.41l-1.72,4.59h0l-1.73,4.55-4.35-1.66-93.13-35.45-9.72-3.71a14.39,14.39,0,0,0,3.09-4.06,14.62,14.62,0,0,0,1.59-4.62l9.23,3.51,93.2,35.49Z" transform="translate(-68.29 -239.01)"/><polyline class="cls-4" points="1419.89 698.06 1419.34 693.54 1405.05 579.15 1403.84 569.47"/><polyline class="cls-4" points="1400.01 538.63 1399.97 538.63 1398.77 528.95 1390.55 462.95 1390.36 461.45"/><path class="cls-3" d="M1468.27,777.64a14.55,14.55,0,0,0-4.71,1.37l-1.27-10L1454,702.28l-.16-1.2,9.68-1.23.2,1.46,8.28,66.52,1.27,10a13.32,13.32,0,0,0-3-.33,11.77,11.77,0,0,0-1.89.13Z" transform="translate(-68.29 -239.01)"/><path class="cls-3" d="M1493,936.45l-4.84.61-4.81.59-.59-4.68-14.33-114.68-1.23-10a14.86,14.86,0,0,0,3,.29,12.78,12.78,0,0,0,2-.13,14.54,14.54,0,0,0,4.74-1.4l1.23,10,14.4,115.23Z" transform="translate(-68.29 -239.01)"/><path class="cls-3" d="M869,530.22a23.53,23.53,0,0,0-.68-4.88,22.68,22.68,0,0,0-1.59-4.64A25.33,25.33,0,0,0,818.42,530c0,.42,0,.88,0,1.3a26.67,26.67,0,0,0,.26,3.61,24.09,24.09,0,0,0,1.17,4.77,25.31,25.31,0,0,0,49.2-8.38A9,9,0,0,0,869,530.22Zm-25.28,16.6a15.64,15.64,0,0,1-15.47-13.77,17.44,17.44,0,0,1-.09-1.79,15.56,15.56,0,0,1,28.5-8.61,16.45,16.45,0,0,1,2.63,8.61,7.31,7.31,0,0,1,0,.81A15.57,15.57,0,0,1,843.7,546.82Z" transform="translate(-68.29 -239.01)"/><path class="cls-3" d="M1262.31,515.11a25.39,25.39,0,0,0-22.42,13.58,23.47,23.47,0,0,0-1.82,4.52,24.44,24.44,0,0,0-1,4.84c-.06.78-.09,1.56-.09,2.37a25.31,25.31,0,0,0,45.69,15,23.33,23.33,0,0,0,2.53-4.26,22.51,22.51,0,0,0,1.66-4.62,25.37,25.37,0,0,0-24.57-31.45Zm13.75,32.56a14.39,14.39,0,0,1-3.09,4.06,15.53,15.53,0,0,1-26.16-10c0-.45-.06-.87-.06-1.33a14.28,14.28,0,0,1,.48-3.7,13.9,13.9,0,0,1,1.89-4.52,15.55,15.55,0,0,1,28.76,8.22,14.07,14.07,0,0,1-.23,2.63A14.62,14.62,0,0,1,1276.06,547.67Z" transform="translate(-68.29 -239.01)"/><path class="cls-3" d="M1472,767.83c-.58,0-1.2-.07-1.78-.07a25.14,25.14,0,0,0-3.12.2,23.32,23.32,0,0,0-4.78,1.07,25.29,25.29,0,0,0,6.17,49.26c.59,0,1.14.07,1.73.07a25.25,25.25,0,0,0,3.15-.2,22.65,22.65,0,0,0,4.77-1.07,25.29,25.29,0,0,0-6.14-49.26Zm4.91,39.25a14.54,14.54,0,0,1-4.74,1.4,12.78,12.78,0,0,1-2,.13,14.86,14.86,0,0,1-3-.29h0a15.53,15.53,0,0,1-3.64-29.31,14.55,14.55,0,0,1,4.71-1.37h0a11.77,11.77,0,0,1,1.89-.13,13.32,13.32,0,0,1,3,.33,15.51,15.51,0,0,1,3.64,29.24Z" transform="translate(-68.29 -239.01)"/><path class="cls-3" d="M588,763.83a23.17,23.17,0,0,0-4.81-1.07,23.56,23.56,0,0,0-3-.2c-.62,0-1.2,0-1.82.07a25.32,25.32,0,0,0-5.17,49.59,24,24,0,0,0,4.81.87c.72.07,1.43.1,2.18.1a24.56,24.56,0,0,0,2.73-.16,25.31,25.31,0,0,0,5.13-49.2ZM583.87,803a14.28,14.28,0,0,1-3.77.49c-.39,0-.78,0-1.17,0a14.77,14.77,0,0,1-4.78-1.17,15.53,15.53,0,0,1,3.09-29.64,14.08,14.08,0,0,1,2.86-.29,13.85,13.85,0,0,1,2,.13,16,16,0,0,1,4.77,1.46,15.55,15.55,0,0,1-3,29.05Z" transform="translate(-68.29 -239.01)"/><path class="cls-2" d="M1513.88,1003.14a44.5,44.5,0,0,1-5.42,17.26,31.74,31.74,0,0,1-2.36,3.52c-3.43,4.4-7.81,7.21-13.3,7.21-5.85,0-10.44-3.19-14-8.08a.86.86,0,0,1-.07-.1c-.58-.8-1.12-1.66-1.65-2.55a41.75,41.75,0,0,1-3.9-9.37.08.08,0,0,1,0,0,41.69,41.69,0,0,1-1.7-11.16,20.87,20.87,0,0,1,.14-2.39c.06-.55.15-1.09.25-1.63h0l1.44-1.06.5-.35a65.53,65.53,0,0,1,9.58-5.6l1.58-.72a56.63,56.63,0,0,1,16.12-4.47h.07c1.6-.19,3.25-.31,4.93-.36.34.28.67.57,1,.86C1507.78,986.9,1510.11,995.92,1513.88,1003.14Z" transform="translate(-68.29 -239.01)"/><path class="cls-3" d="M1534.75,1046.88a12.38,12.38,0,0,1,1.61,3.28c-24.19,20.69-62.93,20.69-87.12,0a11.9,11.9,0,0,1,2.53-4.43,12.22,12.22,0,0,0-2.55,4.43c24.21,20.7,62.94,20.7,87.16,0A12.57,12.57,0,0,0,1534.75,1046.88Zm-22-8.81a30.41,30.41,0,0,1-4.87-1.28,5.35,5.35,0,0,1-1.25-.67,5.21,5.21,0,0,0,1.23.67A30.68,30.68,0,0,0,1512.7,1038.07Zm-19.9-6.94c5.49,0,9.87-2.81,13.3-7.21-.23.28-.46.56-.7.83a17.43,17.43,0,0,1-1.73,1.81,17.24,17.24,0,0,1-3.87,2.82,20.68,20.68,0,0,1-2.18,1,15.47,15.47,0,0,1-9.64,0,19.81,19.81,0,0,1-2.18-1,16.18,16.18,0,0,1-3.87-2.82,24.47,24.47,0,0,1-3.09-3.51C1482.36,1027.94,1487,1031.13,1492.8,1031.13Zm11.52,2a1.17,1.17,0,0,1,0-.11h0ZM1485,988.07a57.38,57.38,0,0,1,16.12-4.47A56.63,56.63,0,0,0,1485,988.07Zm-3.53,45.1h0a1.69,1.69,0,0,0-.13.27C1481.38,1033.34,1481.44,1033.26,1481.47,1033.17Zm-.18.35a.36.36,0,0,0,0-.09.31.31,0,0,1,0,.1,6.87,6.87,0,0,1-3.31,3.18A6.82,6.82,0,0,0,1481.29,1033.52Zm-7.65,4.4,1.23-.27Zm-2.12-38.1a20.84,20.84,0,0,1,.13-2.38,20.87,20.87,0,0,0-.14,2.39,41.69,41.69,0,0,0,1.7,11.16A42.24,42.24,0,0,1,1471.52,999.82Zm.38-4h0c.45-.35.93-.7,1.44-1.07Zm-18.78,48.64a20.44,20.44,0,0,1,6-3.25A20.21,20.21,0,0,0,1453.12,1044.44Zm-1.35,1.29.32-.34Z" transform="translate(-68.29 -239.01)"/><path class="cls-5" d="M1520.91,976.27c-11.92-16.06-28.15-15.37-28.15-15.37s-24.69-1.59-33.65,26.33a107.51,107.51,0,0,0-5,39.27c.18,2.67.43,4.88.68,6.56a83.59,83.59,0,0,0,13.52,5.7l2-.35.26-.05.27,0,.64-.11.85-.16,1.11-.22c.41-.08.82-.17,1.22-.27s1-.24,1.43-.37l.4-.12.43-.14.21-.07h0l.4-.15.22-.09a6.7,6.7,0,0,0,3.31-3.18l.06-.09h0l.13-.26h0a20.26,20.26,0,0,0,22.78-.09h0a1,1,0,0,1,.05.12l.08.15a7,7,0,0,0,2.15,2.76l0,0a5.21,5.21,0,0,0,1.25.68,30.69,30.69,0,0,0,4.87,1.28l.36.06.95.18h0l4,.69a83.57,83.57,0,0,0,12.13-4.88c.16-1.84.32-3.66.45-5.47C1531.93,1008.19,1531.34,990.28,1520.91,976.27Zm-11.32,55.29s-.1,0-.23-.27a12.6,12.6,0,0,0,1.68.68A14.53,14.53,0,0,1,1509.59,1031.56Zm-17-.52a15.27,15.27,0,0,1-10-3.77,23.76,23.76,0,0,1-3.94-4.32l-.06-.09a29.82,29.82,0,0,1-1.66-2.53,41.79,41.79,0,0,1-3.9-9.4v0a42.17,42.17,0,0,1-1.69-11.16,21.19,21.19,0,0,1,.13-2.4c.06-.55.14-1.09.24-1.61h0l1.44-1.06.5-.36a65.19,65.19,0,0,1,9.58-5.59c.52-.25,1-.49,1.58-.72a57,57,0,0,1,16.12-4.48h.07c1.61-.19,3.25-.31,4.94-.36.32.28.68.55,1,.87,0,.18.09.36.13.59.14.45.28,1,.41,1.59.09.32.19.64.28,1,.18.68.41,1.4.63,2.22a80.33,80.33,0,0,0,5.32,13.69,46.61,46.61,0,0,1-3.36,13.14,33.88,33.88,0,0,1-2,4.14,26.09,26.09,0,0,1-2.38,3.49,21.53,21.53,0,0,1-4,4A15.05,15.05,0,0,1,1492.63,1031Z" transform="translate(-68.29 -239.01)"/><path class="cls-2" d="M1536.38,1050.16c-24.22,20.7-63,20.7-87.16,0a12.22,12.22,0,0,1,2.55-4.43h0l.32-.34h0l.16-.16c.28-.28.57-.54.87-.79a20.21,20.21,0,0,1,6-3.25l.32-.11c.49-.18,1-.35,1.51-.51a76.92,76.92,0,0,1,9.58-2.07l.26,0,.28,0,.63-.11.86-.16,1.1-.22,1.23-.27c.49-.12,1-.24,1.43-.37l.4-.12.43-.14.21-.08h0l.41-.15.21-.08a6.87,6.87,0,0,0,3.31-3.18.31.31,0,0,0,0-.1h0a1.69,1.69,0,0,1,.13-.27h0a20.25,20.25,0,0,0,22.79-.1h0a1.17,1.17,0,0,0,0,.11l.06.15a6.93,6.93,0,0,0,2.16,2.76l0,0a5.35,5.35,0,0,0,1.25.67,30.41,30.41,0,0,0,4.87,1.28l.36.07,1,.17h0a90.29,90.29,0,0,1,10.65,2.26c1,.32,2,.67,3,1.06l.47.2.12.06.57.26.44.22h0l.43.22h0l.39.21c.36.21.72.42,1.06.65a13.54,13.54,0,0,1,3.44,3.18l.17.24A12.57,12.57,0,0,1,1536.38,1050.16Z" transform="translate(-68.29 -239.01)"/><path class="cls-5" d="M1508.88,1004c-.42,0-.84,0-1.25,0a6.51,6.51,0,0,0-5.69-6.19c-3.63-.27-6,1.44-7.18,4.85a5.18,5.18,0,0,0-5.76.05,6.53,6.53,0,0,0-7-4.92,6.25,6.25,0,0,0-3.69,1.65,6.53,6.53,0,0,0-2.14,4.53H1475c-.4,0-.64.21-.64.56s.24.53.63.54h1.26a2.71,2.71,0,0,1,.07.32,6.49,6.49,0,0,0,12.87-1.15.53.53,0,0,1,.1-.34,4,4,0,0,1,5.2-.07.61.61,0,0,1,.17.37c.06.44,0,.89.13,1.33a6.48,6.48,0,0,0,10.14,4,6.3,6.3,0,0,0,2.59-4.14c0-.19.11-.28.32-.26.37,0,.74,0,1.11,0a.48.48,0,0,0,.49-.34A.53.53,0,0,0,1508.88,1004Zm-26.16,5.62a5.38,5.38,0,1,1,5.34-5.45A5.37,5.37,0,0,1,1482.72,1009.61Zm18.35,0a5.39,5.39,0,1,1,5.43-5.37A5.39,5.39,0,0,1,1501.07,1009.62Z" transform="translate(-68.29 -239.01)"/><path class="cls-3" d="M566.55,901.44c-1-.06-2-.06-3.09-.06h-.32a26.39,26.39,0,0,0-2.83.1c-.68,0-1.37.06-2,.13-1.62.06-3.25.22-4.84.42a81.06,81.06,0,0,0-68.24,59.59c-.46,1.63-.85,3.32-1.17,5s-.62,3.41-.85,5.16a81,81,0,1,0,83.39-70.32Zm-3.09,153.09a72.26,72.26,0,0,1-70.91-85.85v0c.17-.78.33-1.56.53-2.34a72.18,72.18,0,1,1,70.38,88.23Z" transform="translate(-68.29 -239.01)"/><path class="cls-2" d="M546.65,988.38c4,6.82,9.45,11.5,16.79,11.5s12.8-4.68,16.77-11.5a47.25,47.25,0,0,0,6-22,22.7,22.7,0,0,0-11-19.47,46.26,46.26,0,0,1-33.64,12.93,22.73,22.73,0,0,0-1,6.54A47.25,47.25,0,0,0,546.65,988.38Z" transform="translate(-68.29 -239.01)"/><path class="cls-2" d="M610.09,1020.26c-25.92,22.17-67.4,22.17-93.32,0,1.87-5.73,6.69-8.44,12.54-10.27,6.41-2,13.34-2.27,18-4.06a7.39,7.39,0,0,0,3.79-3.51c0-.12.12-.24.15-.36a21.73,21.73,0,0,0,24.45-.11,2.38,2.38,0,0,0,.12.27,6.82,6.82,0,0,0,3.66,3.71c4.7,1.79,11.63,2.07,18,4.06C603.44,1011.82,608.22,1014.53,610.09,1020.26Z" transform="translate(-68.29 -239.01)"/><path class="cls-5" d="M590.68,953.67a28.52,28.52,0,0,1-3.4,11.37,20.69,20.69,0,0,1-5.29-7.61,18.5,18.5,0,0,1-.65-1.9c-.11-.39-.17-1.65-.44-1.91-.61-.6-3.27-.09-4.18,0a50.73,50.73,0,0,0-8.85,1.09c-1.08.24-2.15.55-3.22.87s-3.09.87-5.4,1.64a61.65,61.65,0,0,0-7.39,2.74c-5.68,2.69-7.08,5.22-9.35,4.54-.82-.24-2-1-2.92-3.33a27.05,27.05,0,0,1,1.47-18.48c5.26-10.91,17.25-14.91,25.53-14.85a20.11,20.11,0,0,1,17.8,10.09,6.52,6.52,0,0,1,1.84.64C591.62,941.4,590.82,951.86,590.68,953.67Z" transform="translate(-68.29 -239.01)"/><ellipse class="cls-2" cx="586.22" cy="967.92" rx="7.36" ry="5.2" transform="translate(-537.98 1135.84) rotate(-79.87)"/><path class="cls-2" d="M547.17,967.73c.15,4.12-2.09,7.55-5,7.66s-5.4-3.15-5.55-7.28,2.1-7.55,5-7.66S547,963.61,547.17,967.73Z" transform="translate(-68.29 -239.01)"/><path class="cls-5" d="M580.7,967.92h-1.25a6.49,6.49,0,0,0-5.69-6.18c-3.63-.28-6,1.44-7.18,4.85a5.17,5.17,0,0,0-5.76,0,6.51,6.51,0,0,0-7-4.91,6.21,6.21,0,0,0-3.69,1.64,6.51,6.51,0,0,0-2.14,4.53h-1.21c-.41,0-.64.21-.64.55s.23.54.62.54H548a2.6,2.6,0,0,1,.07.31A6.49,6.49,0,0,0,561,968.16a.45.45,0,0,1,.1-.33,4,4,0,0,1,5.2-.07.58.58,0,0,1,.17.36c0,.45,0,.9.13,1.34a6.49,6.49,0,0,0,10.14,4,6.33,6.33,0,0,0,2.59-4.14c0-.2.11-.28.32-.27.37,0,.74,0,1.11,0a.5.5,0,0,0,.49-.34A.54.54,0,0,0,580.7,967.92Zm-26.16,5.63a5.38,5.38,0,1,1,5.33-5.45A5.38,5.38,0,0,1,554.54,973.55Zm18.35,0a5.39,5.39,0,1,1,5.43-5.37A5.39,5.39,0,0,1,572.89,973.55Z" transform="translate(-68.29 -239.01)"/><path class="cls-3" d="M1057,394.13c-1-.07-2-.07-3.09-.07h-.33a26.3,26.3,0,0,0-2.82.1c-.69,0-1.37.06-2,.13-1.63.06-3.25.23-4.84.42a81.06,81.06,0,0,0-68.24,59.6c-.46,1.62-.85,3.31-1.17,5s-.62,3.41-.85,5.17A81,81,0,1,0,1057,394.13Zm-3.09,153.08A72.21,72.21,0,0,1,983,461.36v0c.17-.78.33-1.56.52-2.34a72.18,72.18,0,1,1,70.39,88.22Z" transform="translate(-68.29 -239.01)"/><path class="cls-2" d="M1037.08,481.07c4,6.81,9.45,11.49,16.78,11.49s12.81-4.68,16.77-11.49a47.19,47.19,0,0,0,6-22,22.71,22.71,0,0,0-11-19.47A46.22,46.22,0,0,1,1032,452.5a22.84,22.84,0,0,0-1,6.54A47.17,47.17,0,0,0,1037.08,481.07Z" transform="translate(-68.29 -239.01)"/><path class="cls-2" d="M1100.51,512.94c-25.91,22.18-67.4,22.18-93.31,0,1.87-5.73,6.68-8.44,12.54-10.27,6.41-2,13.33-2.27,18-4.06a7.39,7.39,0,0,0,3.78-3.5c0-.12.12-.24.16-.36a21.76,21.76,0,0,0,24.45-.12,2,2,0,0,0,.12.28,6.8,6.8,0,0,0,3.66,3.7c4.7,1.79,11.62,2.07,18,4.06C1093.87,504.5,1098.64,507.21,1100.51,512.94Z" transform="translate(-68.29 -239.01)"/><path class="cls-5" d="M1081.11,446.36a28.57,28.57,0,0,1-3.4,11.37,20.75,20.75,0,0,1-5.3-7.62c-.24-.62-.46-1.25-.64-1.89-.11-.39-.18-1.66-.44-1.92-.62-.6-3.28-.09-4.18,0a51.69,51.69,0,0,0-8.85,1.08c-1.08.25-2.16.55-3.22.87s-3.09.88-5.41,1.64a60.25,60.25,0,0,0-7.38,2.75c-5.68,2.68-7.08,5.22-9.36,4.54-.81-.25-2-1-2.91-3.34a27,27,0,0,1,1.47-18.48c5.25-10.9,17.25-14.9,25.52-14.84a20.11,20.11,0,0,1,17.81,10.09,6.45,6.45,0,0,1,1.83.63C1082.05,434.08,1081.24,444.55,1081.11,446.36Z" transform="translate(-68.29 -239.01)"/><ellipse class="cls-2" cx="1076.65" cy="460.61" rx="7.36" ry="5.2" transform="translate(365.64 1200.5) rotate(-79.87)"/><path class="cls-2" d="M1037.6,460.41c.15,4.13-2.09,7.56-5,7.66s-5.4-3.15-5.55-7.27,2.09-7.56,5-7.66S1037.45,456.29,1037.6,460.41Z" transform="translate(-68.29 -239.01)"/><path class="cls-5" d="M1071.12,460.61c-.41,0-.83,0-1.24,0a6.51,6.51,0,0,0-5.69-6.18c-3.64-.27-6,1.44-7.18,4.85a5.18,5.18,0,0,0-5.76.05,6.51,6.51,0,0,0-7-4.92,6.22,6.22,0,0,0-3.69,1.65,6.45,6.45,0,0,0-2.14,4.53h-1.21c-.41,0-.65.21-.64.56s.23.53.62.54h1.27a2.71,2.71,0,0,1,.07.32,6.48,6.48,0,0,0,12.86-1.15.48.48,0,0,1,.11-.34,4,4,0,0,1,5.2-.07.61.61,0,0,1,.17.37c0,.44,0,.89.13,1.33a6.48,6.48,0,0,0,10.14,4,6.34,6.34,0,0,0,2.59-4.14c0-.19.11-.28.32-.26.37,0,.74,0,1.11,0a.48.48,0,0,0,.49-.34A.53.53,0,0,0,1071.12,460.61ZM1045,466.23a5.38,5.38,0,1,1,5.33-5.45A5.38,5.38,0,0,1,1045,466.23Zm18.35,0a5.39,5.39,0,1,1,5.43-5.37A5.39,5.39,0,0,1,1063.32,466.24Z" transform="translate(-68.29 -239.01)"/><path class="cls-3" d="M633.36,534.94c-1-.06-2-.06-3.08-.06H630a26.3,26.3,0,0,0-2.82.1c-.69,0-1.37.06-2,.13-1.63.06-3.25.22-4.84.42A81,81,0,0,0,552,595.13c-.46,1.62-.85,3.31-1.17,5s-.62,3.41-.85,5.17a81,81,0,1,0,83.38-70.33ZM630.28,688a72.21,72.21,0,0,1-70.91-85.85v0c.16-.78.33-1.56.52-2.34A72.18,72.18,0,1,1,630.28,688Z" transform="translate(-68.29 -239.01)"/><path class="cls-2" d="M613.47,621.89c4,6.81,9.45,11.49,16.78,11.49s12.81-4.68,16.77-11.49a47.19,47.19,0,0,0,6-22,22.7,22.7,0,0,0-11-19.47,46.26,46.26,0,0,1-33.64,12.93,22.79,22.79,0,0,0-1,6.54A47.2,47.2,0,0,0,613.47,621.89Z" transform="translate(-68.29 -239.01)"/><path class="cls-2" d="M676.9,653.76c-25.91,22.18-67.4,22.18-93.31,0,1.87-5.73,6.68-8.44,12.54-10.27,6.41-2,13.33-2.27,18-4.06a7.36,7.36,0,0,0,3.78-3.51c0-.12.12-.23.16-.35a21.76,21.76,0,0,0,24.45-.12,2,2,0,0,0,.12.28,6.8,6.8,0,0,0,3.66,3.7c4.7,1.79,11.62,2.07,18,4.06C670.26,645.32,675,648,676.9,653.76Z" transform="translate(-68.29 -239.01)"/><path class="cls-5" d="M657.49,587.18a28.2,28.2,0,0,1-3.4,11.36,20.81,20.81,0,0,1-5.29-7.61c-.24-.62-.46-1.25-.64-1.9-.11-.39-.18-1.65-.45-1.91-.61-.6-3.27-.09-4.17,0a49.67,49.67,0,0,0-8.85,1.08c-1.08.25-2.16.55-3.22.87s-3.09.87-5.41,1.64a62.09,62.09,0,0,0-7.38,2.74c-5.68,2.69-7.08,5.23-9.36,4.55-.81-.25-2-1-2.91-3.34a27,27,0,0,1,1.47-18.48c5.25-10.91,17.25-14.9,25.52-14.85a20.11,20.11,0,0,1,17.81,10.1A6.15,6.15,0,0,1,653,572C658.44,574.9,657.63,585.37,657.49,587.18Z" transform="translate(-68.29 -239.01)"/><ellipse class="cls-2" cx="653.04" cy="601.42" rx="7.36" ry="5.2" transform="translate(-122.12 899.55) rotate(-79.87)"/><path class="cls-2" d="M614,601.23c.15,4.13-2.09,7.55-5,7.66s-5.4-3.15-5.55-7.28,2.09-7.55,5-7.65S613.84,597.11,614,601.23Z" transform="translate(-68.29 -239.01)"/><path class="cls-3" d="M1457.74,540.49c-1-.07-2-.07-3.09-.07h-.32a26.39,26.39,0,0,0-2.83.1c-.68,0-1.36.06-2,.13-1.62.06-3.25.23-4.84.42a81.07,81.07,0,0,0-68.24,59.6c-.45,1.62-.84,3.31-1.17,5s-.62,3.41-.84,5.17a79.82,79.82,0,0,0-.69,10.56,81,81,0,1,0,84.07-80.88Zm-3.09,153.08a72.21,72.21,0,0,1-70.9-85.85v0c.16-.78.32-1.56.52-2.34a72.18,72.18,0,1,1,70.38,88.22Z" transform="translate(-68.29 -239.01)"/><path class="cls-2" d="M1475.7,611.25a44.51,44.51,0,0,1-5.42,17.25,31.27,31.27,0,0,1-2.36,3.52c-3.43,4.4-7.81,7.22-13.3,7.22-5.85,0-10.44-3.2-14-8.09l-.07-.09c-.58-.81-1.13-1.67-1.65-2.56a41.59,41.59,0,0,1-3.91-9.37,0,0,0,0,0,0,0,42.18,42.18,0,0,1-1.69-11.17,20.87,20.87,0,0,1,.14-2.39c.06-.55.15-1.09.25-1.63h0c.45-.35.93-.7,1.44-1.07l.49-.35a64.82,64.82,0,0,1,9.59-5.59c.51-.25,1-.49,1.58-.73a56.65,56.65,0,0,1,16.11-4.47h.08c1.6-.19,3.24-.31,4.93-.35.34.27.66.56,1,.86A91.32,91.32,0,0,0,1475.7,611.25Z" transform="translate(-68.29 -239.01)"/><path class="cls-3" d="M1496.56,655a12,12,0,0,1,1.62,3.29c-24.19,20.69-62.93,20.69-87.13,0a12.1,12.1,0,0,1,2.53-4.43,12.24,12.24,0,0,0-2.54,4.42c24.21,20.7,62.94,20.7,87.16,0A12.44,12.44,0,0,0,1496.56,655Zm-22-8.81a30.41,30.41,0,0,1-4.87-1.28,5.35,5.35,0,0,1-1.25-.67,5.79,5.79,0,0,0,1.22.68A32.27,32.27,0,0,0,1474.52,646.17Zm-19.9-6.93c5.49,0,9.87-2.82,13.3-7.22-.23.28-.47.56-.71.83a17.39,17.39,0,0,1-1.72,1.82,17.74,17.74,0,0,1-3.87,2.81,20.68,20.68,0,0,1-2.18,1,15.47,15.47,0,0,1-9.64,0,20.82,20.82,0,0,1-2.19-1,16.36,16.36,0,0,1-3.86-2.81,24.56,24.56,0,0,1-3.09-3.52C1444.18,636,1448.77,639.24,1454.62,639.24Zm11.52,2a.61.61,0,0,1-.05-.12h0Zm-19.32-45.12a57.31,57.31,0,0,1,16.11-4.47A56.65,56.65,0,0,0,1446.82,596.17Zm-3.53,45.1h0c0,.08-.08.18-.13.27A1.3,1.3,0,0,0,1443.29,641.27Zm-.18.35a.59.59,0,0,1,0-.08l-.05.09a6.87,6.87,0,0,1-3.31,3.18A6.78,6.78,0,0,0,1443.11,641.62Zm-7.65,4.4c.42-.09.83-.17,1.22-.27Zm-2.12-38.09a21,21,0,0,1,.13-2.39,20.87,20.87,0,0,0-.14,2.39A42.18,42.18,0,0,0,1435,619.1,42.68,42.68,0,0,1,1433.34,607.93Zm.38-4h0l1.44-1.07C1434.65,603.21,1434.17,603.56,1433.72,603.91Zm-18.78,48.63a20.67,20.67,0,0,1,6-3.25A20.67,20.67,0,0,0,1414.94,652.54Zm-1.35,1.3c.1-.12.21-.23.32-.34C1413.8,653.61,1413.69,653.72,1413.59,653.84Z" transform="translate(-68.29 -239.01)"/><path class="cls-5" d="M1482.73,584.37c-11.92-16-28.15-15.37-28.15-15.37s-24.69-1.59-33.65,26.33a107.33,107.33,0,0,0-5,39.27c.17,2.67.43,4.88.68,6.56a83.59,83.59,0,0,0,13.52,5.7l2-.35.27,0,.27,0,.63-.12.86-.16,1.11-.21,1.22-.27c.49-.12,1-.24,1.43-.38l.4-.12.43-.14.21-.07h0l.4-.15a.85.85,0,0,0,.22-.09,6.77,6.77,0,0,0,3.31-3.17l.06-.1h0c0-.09.09-.18.13-.26h0a20.28,20.28,0,0,0,22.78-.1h0a1.17,1.17,0,0,0,0,.11l.08.16a7,7,0,0,0,2.15,2.75l0,0a5.55,5.55,0,0,0,1.25.67,30.69,30.69,0,0,0,4.87,1.28l.36.07,1,.17h0l4,.7a85.63,85.63,0,0,0,12.13-4.89c.16-1.84.32-3.66.45-5.46C1493.74,616.29,1493.16,598.39,1482.73,584.37Zm-11.33,55.29s-.09,0-.22-.27a11.39,11.39,0,0,0,1.68.68A13.07,13.07,0,0,1,1471.4,639.66Zm-17-.52a15.27,15.27,0,0,1-10-3.77,23.37,23.37,0,0,1-3.94-4.31.36.36,0,0,0-.07-.1c-.58-.8-1.13-1.64-1.66-2.53a42,42,0,0,1-3.89-9.4v0a42.09,42.09,0,0,1-1.7-11.16,21.18,21.18,0,0,1,.14-2.4c.06-.54.14-1.08.23-1.61h0c.45-.34.93-.7,1.44-1.06l.5-.35a63.78,63.78,0,0,1,9.58-5.6l1.58-.72a57,57,0,0,1,16.12-4.48h.07a49.25,49.25,0,0,1,4.94-.36c.31.27.68.54,1,.86,0,.18.09.36.13.59.14.45.28,1,.41,1.59.09.32.18.64.28,1,.18.68.4,1.41.63,2.23a79.74,79.74,0,0,0,5.32,13.68,46.61,46.61,0,0,1-3.36,13.14,35.39,35.39,0,0,1-2,4.14,25.23,25.23,0,0,1-2.39,3.49,21.54,21.54,0,0,1-3.94,4A15.07,15.07,0,0,1,1454.44,639.14Z" transform="translate(-68.29 -239.01)"/><path class="cls-2" d="M1498.2,658.26c-24.22,20.7-63,20.7-87.16,0a12.24,12.24,0,0,1,2.54-4.42h0c.1-.12.21-.23.32-.34h0l.16-.16c.28-.28.57-.54.87-.79a20.67,20.67,0,0,1,6-3.25l.31-.11c.5-.18,1-.35,1.52-.51a76.92,76.92,0,0,1,9.58-2.07l.26,0,.28,0,.63-.11.86-.16,1.1-.22,1.22-.27c.5-.12,1-.24,1.43-.37l.4-.12.43-.14.21-.07h0a3.52,3.52,0,0,0,.42-.15l.21-.08a6.87,6.87,0,0,0,3.31-3.18l.05-.09h0c0-.09.09-.19.13-.27h0a20.28,20.28,0,0,0,22.79-.09h0a.61.61,0,0,0,.05.12l.06.14a6.93,6.93,0,0,0,2.16,2.76l0,0a5.35,5.35,0,0,0,1.25.67,30.41,30.41,0,0,0,4.87,1.28l.36.07.95.18h0a88.23,88.23,0,0,1,10.65,2.25c1,.33,2,.68,3,1.07l.47.2.12,0,.57.26.44.22h0l.43.22h0l.39.22c.36.2.72.41,1.06.64a13.37,13.37,0,0,1,3.43,3.19,2,2,0,0,1,.17.23A12.44,12.44,0,0,1,1498.2,658.26Z" transform="translate(-68.29 -239.01)"/><path class="cls-6" d="M927.76,1283.45c11.31,7.08,4.3,20.71-11.27,36.88-18.6,19.3-66.91,39.05-94,22h0a35.84,35.84,0,0,1-6.82-5.61c-24.83-26.3,81.54-59.54,96.46-57.77C919.22,1279.74,924.33,1281.29,927.76,1283.45Z" transform="translate(-68.29 -239.01)"/><path class="cls-7" d="M927.76,1283.45c11.31,7.08,4.3,20.71-11.27,36.88-18.6,19.3-66.91,39.05-94,22C851.41,1341,900.43,1331.31,927.76,1283.45Z" transform="translate(-68.29 -239.01)"/><path class="cls-8" d="M838.36,1310.32c7.83-3.37,21.3-7.72,22.66-5.11s-9.83,12.65-22.84,17.56c-8.89,3.35-20.24,5-21.22,2.48C815.86,1322.46,828.15,1314.71,838.36,1310.32Z" transform="translate(-68.29 -239.01)"/><path class="cls-6" d="M1154.34,1326.39c0,54.29-38.08,118-98.58,118-37.5,0-68.35-23-86.39-53.65C958.28,1372,952,1350.19,952,1329c0-55.61,60.69-53,99.16-53,42.18,0,92.26-3.23,101.6,36.06A60.81,60.81,0,0,1,1154.34,1326.39Z" transform="translate(-68.29 -239.01)"/><path class="cls-7" d="M1154.34,1326.39c0,54.29-38.08,118-98.58,118-37.5,0-68.35-23-86.39-53.65,37.58,17.69,144.62,54.33,183.42-78.65A60.81,60.81,0,0,1,1154.34,1326.39Z" transform="translate(-68.29 -239.01)"/><path class="cls-8" d="M973,1307.48c-7.86,12.82-2.3,31,11.19,38.21,14.27,7.57,33.68.79,39-14.26,5-14.29-4.67-30.3-18.58-34.79C993.41,1293,979.51,1296.83,973,1307.48Z" transform="translate(-68.29 -239.01)"/><path class="cls-6" d="M1202.87,1243.56c-16.11,19-30.19,27.27-38.12,10.71a51.13,51.13,0,0,1-3.52-10.79c-3.28-14.67,18.92-123.86,47.62-101.85,7.42,5.69,11.86,13.76,14.05,23C1229.17,1191.06,1216.88,1227,1202.87,1243.56Z" transform="translate(-68.29 -239.01)"/><path class="cls-7" d="M1202.87,1243.56c-16.11,19-30.19,27.27-38.12,10.71,12.45-6.92,35.23-27.64,58.15-89.67C1229.17,1191.06,1216.88,1227,1202.87,1243.56Z" transform="translate(-68.29 -239.01)"/><path class="cls-8" d="M1187.35,1185.1c-4.51,16.27-13.67,43.54-16.74,42.78-2.76-.69-.94-24.27,7.6-46.34,4.76-12.29,12.09-25.4,14.14-24.64C1194.9,1157.85,1188.75,1180,1187.35,1185.1Z" transform="translate(-68.29 -239.01)"/><path class="cls-6" d="M927.11,1168.9a39.17,39.17,0,0,1-9.09-11.53,37.62,37.62,0,0,1,22.37-53.81,39.07,39.07,0,0,1,9.57-1.74C960.46,1144.24,927.11,1168.9,927.11,1168.9Z" transform="translate(-68.29 -239.01)"/><path class="cls-7" d="M927.11,1168.9a39.17,39.17,0,0,1-9.09-11.53c3.85-7.95,7.69-16.4,11.43-25.34,4.12-9.84,7.75-19.36,10.94-28.47a39.07,39.07,0,0,1,9.57-1.74Q938.53,1135.36,927.11,1168.9Z" transform="translate(-68.29 -239.01)"/><path class="cls-6" d="M1142.24,1197.44c-.14,53.92-121.92,80.2-181.72,51.76-16.61-7.9-28.44-20-31.54-37-14.3-77.83,32.65-153.27,92.33-157.42,21.63-1.5,47.6,5,69.91,21.9C1119.81,1098.33,1142.41,1136.94,1142.24,1197.44Z" transform="translate(-68.29 -239.01)"/><path class="cls-9" d="M1107,1152.27c.75,10.76-10.61,18.22-25.57,23.21-15.76,5.27-35.51,7.81-49.33,8.64-19.77,1.18-58.14.4-72.76-11.17-3.42-2.71-5.54-6-5.82-10a41.63,41.63,0,0,1,10.64-30.75,44,44,0,0,1,29.84-14.5l66.65-4.63A43.87,43.87,0,0,1,1096.1,1127,41.46,41.46,0,0,1,1107,1152.27Z" transform="translate(-68.29 -239.01)"/><path class="cls-10" d="M1107,1152.27c.75,10.76-10.61,18.22-25.57,23.21-15.76,5.27-35.51,7.81-49.33,8.64-19.77,1.18-58.14.4-72.76-11.17,39.07-3.9,105.18-14.94,136.73-46A41.46,41.46,0,0,1,1107,1152.27Z" transform="translate(-68.29 -239.01)"/><path class="cls-7" d="M1142.24,1197.44c-.14,53.92-121.92,80.2-181.72,51.76,35.57,3.4,141.11,8.94,156.44-42.79,13.18-44.49-10.86-101-25.74-129.68C1119.81,1098.33,1142.41,1136.94,1142.24,1197.44Z" transform="translate(-68.29 -239.01)"/><path class="cls-8" d="M956.22,1112.41c3.47,4,22.4-6.17,34.86-16.74,11.94-10.13,23.77-25.62,20.65-29.56-2.78-3.5-16.85,2.74-25.59,8.19C966.57,1086.51,952.43,1108.08,956.22,1112.41Z" transform="translate(-68.29 -239.01)"/><path class="cls-8" d="M933.53,1197.88c1.46,14.3,11.17,27.29,14.65,26.12,3.65-1.23.94-18.25-1.42-27.54-.68-2.66-4.84-19-8.7-18.64C935,1178.09,932.59,1188.61,933.53,1197.88Z" transform="translate(-68.29 -239.01)"/><path class="cls-11" d="M1092.77,1144.14a19.44,19.44,0,1,1-2.25-7.82A19.22,19.22,0,0,1,1092.77,1144.14Z" transform="translate(-68.29 -239.01)"/><path class="cls-12" d="M1096.1,1143.9a22.94,22.94,0,0,0-2.66-9.17,21.71,21.71,0,0,0-2.21-3.34,22.64,22.64,0,0,0-17.84-8.68c-.52,0-1.08,0-1.6.07a22.76,22.76,0,0,0-19.85,30.35,20.09,20.09,0,0,0,.78,1.91,22.76,22.76,0,0,0,20.63,13.2c.52,0,1.08,0,1.6,0a22.81,22.81,0,0,0,21.15-24.31Zm-21.38,21c-.46,0-.91,0-1.37,0s-1.23,0-1.85-.09c-.26,0-.55,0-.81-.1a7,7,0,0,1-.78-.13,8.26,8.26,0,0,1-1.24-.26c-.29-.07-.55-.13-.84-.23a17.75,17.75,0,0,1-5.14-2.4,9.67,9.67,0,0,1-1-.69,13.28,13.28,0,0,1-1.1-.84,9.35,9.35,0,0,1-.95-.94,9.74,9.74,0,0,1-.94-1,19.47,19.47,0,0,1-3-4.55.35.35,0,0,1-.06-.16,11.52,11.52,0,0,1-.52-1.24,1.49,1.49,0,0,1-.13-.39,17.92,17.92,0,0,1-.85-3.24c0-.1,0-.23-.06-.33,0-.26-.07-.55-.1-.84s0-.43-.06-.62a1.09,1.09,0,0,1,0-.36,11.07,11.07,0,0,1,0-1.82c0-.19,0-.39.07-.55s0-.2,0-.29a4.36,4.36,0,0,0,0-.62,4,4,0,0,1,.07-.59,4.66,4.66,0,0,1,.13-.65c0-.06,0-.13,0-.19l.07-.33v-.06a1.29,1.29,0,0,1,.09-.46c.07-.35.17-.68.26-1a17.21,17.21,0,0,1,1.66-3.9c.16-.33.36-.65.55-1h0s0-.06,0-.1c.29-.45.58-.87.91-1.3a.1.1,0,0,0,0-.06h0l.39-.49.78-.87a11.71,11.71,0,0,1,1.27-1.27,19.45,19.45,0,0,1,2.83-2.11,18.43,18.43,0,0,1,1.62-.88s0,0,.07,0a17.92,17.92,0,0,1,4.77-1.56h0a4.23,4.23,0,0,1,.71-.13,10.84,10.84,0,0,1,1.53-.2h0c.49,0,.94-.06,1.4-.06s.91,0,1.36.06h.23a21.2,21.2,0,0,1,2.41.36v0a1.09,1.09,0,0,1,.35.07,7.58,7.58,0,0,1,.91.22l0,0a.34.34,0,0,1,.17,0c.36.1.71.19,1.07.32v0c.42.13.81.29,1.2.45l1.2.59a17.87,17.87,0,0,1,2.18,1.33,6.46,6.46,0,0,1,.68.52c.26.19.52.42.78.65a14.53,14.53,0,0,1,1.47,1.36l.87,1,.3.39c.16.19.32.42.48.61,0,0,0,0,0,0l.17.22a3.16,3.16,0,0,1,.39.56,13.16,13.16,0,0,1,.84,1.39v0a19.12,19.12,0,0,1,2.28,7.8A19.47,19.47,0,0,1,1074.72,1164.89Z" transform="translate(-68.29 -239.01)"/><path class="cls-13" d="M1090.5,1136.28c-6,18-24,18.74-34.73,17.44a19.44,19.44,0,0,1,34.73-17.44Z" transform="translate(-68.29 -239.01)"/><path class="cls-8" d="M1072.08,1139.1a6.46,6.46,0,1,1-6.89-6A6.46,6.46,0,0,1,1072.08,1139.1Z" transform="translate(-68.29 -239.01)"/><path class="cls-8" d="M1088.85,1148.19c1.1.64.13,7.5-4.49,10.41-4.1,2.6-9.87,1.31-10.09.07-.16-.9,2.75-1.36,7.45-4.66C1086.66,1150.53,1088.08,1147.75,1088.85,1148.19Z" transform="translate(-68.29 -239.01)"/><path class="cls-11" d="M1006.72,1150.11a19.46,19.46,0,1,1-2.25-7.81A19.45,19.45,0,0,1,1006.72,1150.11Z" transform="translate(-68.29 -239.01)"/><path class="cls-12" d="M1010.05,1149.88a22.82,22.82,0,0,0-22.71-21.19c-.52,0-1.08,0-1.59.07A22.69,22.69,0,0,0,966.67,1161a22.87,22.87,0,0,0,9,10h0a22.9,22.9,0,0,0,11.56,3.16c.52,0,1.08,0,1.6,0a22.87,22.87,0,0,0,21.15-24.3Zm-3.41,3.38a2.19,2.19,0,0,1-.07.65,7.83,7.83,0,0,1-.19,1.26c-.1.59-.26,1.21-.42,1.79-.1.33-.23.68-.36,1a12.93,12.93,0,0,1-.65,1.59,10.08,10.08,0,0,1-.52,1c-.23.43-.46.82-.71,1.24a12.36,12.36,0,0,1-.88,1.3c-.36.42-.72.84-1.07,1.27a4.28,4.28,0,0,1-.49.55l-.07.06-.09.1a18.2,18.2,0,0,1-1.47,1.33l-.06.07c-.36.29-.78.58-1.17.88l-.07.06,0,0h0s-.07,0-.1.07,0,0-.06,0a10.48,10.48,0,0,1-1.24.75c-.45.26-1,.52-1.46.74a7.3,7.3,0,0,1-.94.43c-.62.26-1.27.45-1.92.65a6,6,0,0,1-.68.16,9.17,9.17,0,0,1-1.34.29,16.1,16.1,0,0,1-1.88.23c-.46,0-.91,0-1.37,0a10.78,10.78,0,0,1-1.39-.06,7.49,7.49,0,0,1-.85-.07c-.16,0-.29,0-.42-.06-.45-.07-.88-.13-1.3-.23a10.06,10.06,0,0,1-1.27-.29H982s-.1,0-.1-.07a.19.19,0,0,1-.13,0c-.46-.13-.88-.29-1.3-.45a6.91,6.91,0,0,1-1.27-.53,12.79,12.79,0,0,1-1.23-.61c-.39-.23-.78-.46-1.17-.72a8.25,8.25,0,0,1-1.11-.78c-.26-.19-.55-.39-.81-.61-.42-.39-.85-.75-1.27-1.17l-.49-.52a10.89,10.89,0,0,1-.78-.88l-.06-.07A15.58,15.58,0,0,1,971,1162a19.17,19.17,0,0,1-1.33-2.4c-.36-.82-.68-1.69-1-2.6,0-.07,0-.1,0-.17s-.06-.29-.1-.45a2.53,2.53,0,0,1-.13-.46c-.09-.42-.19-.84-.25-1.3,0-.16-.07-.32-.1-.48-.07-.46-.13-.91-.16-1.37s0-.88,0-1.33v-.07a14.23,14.23,0,0,1,.1-1.62v-.23c0-.06,0-.09,0-.16a17.33,17.33,0,0,1,.52-2.86.1.1,0,0,1,0-.06,4.57,4.57,0,0,0,.1-.46v0c.07-.13.1-.26.17-.39v-.07c0-.06,0-.09.06-.16a4.34,4.34,0,0,1,.32-.94,15.45,15.45,0,0,1,.82-1.79,9.15,9.15,0,0,1,.87-1.56,11.8,11.8,0,0,1,1-1.46,17.52,17.52,0,0,1,1.17-1.37,20.78,20.78,0,0,1,2.67-2.37c.42-.32.84-.62,1.26-.88.17-.09.33-.22.49-.29s.55-.32.81-.45a.64.64,0,0,1,.23-.1,1.21,1.21,0,0,1,.29-.16,20,20,0,0,1,2.31-1l.88-.29a9.38,9.38,0,0,1,1-.23.19.19,0,0,1,.13,0,6.09,6.09,0,0,1,.91-.19,16.1,16.1,0,0,1,1.88-.23c.36,0,.68,0,1,0,.53,0,1,0,1.56.06h0a3.08,3.08,0,0,1,.62,0h.19a5.82,5.82,0,0,1,.82.13.8.8,0,0,1,.26,0,7.38,7.38,0,0,1,.91.13,3.89,3.89,0,0,1,.71.19.63.63,0,0,1,.36.1c.06,0,.13,0,.19.06a.05.05,0,0,1,.07,0,3,3,0,0,1,.55.17l.26.09s0,0,.07,0l.09,0a4.65,4.65,0,0,1,.69.23c.26.09.52.19.74.29,0,0,0,0,0,0a2.79,2.79,0,0,1,.58.32,5.64,5.64,0,0,0,.59.26,17.09,17.09,0,0,1,1.75,1.08,20.51,20.51,0,0,1,2.47,1.91,8.68,8.68,0,0,1,.91.91,19.41,19.41,0,0,1,3,4.2,18.93,18.93,0,0,1,2.24,7.8c0,.45,0,.91,0,1.36A17.41,17.41,0,0,1,1006.64,1153.26Z" transform="translate(-68.29 -239.01)"/><path class="cls-13" d="M1004.47,1142.3c-6,18-24.05,18.69-34.75,17.39a19.44,19.44,0,0,1,34.75-17.39Z" transform="translate(-68.29 -239.01)"/><path class="cls-8" d="M986,1145.08a6.46,6.46,0,1,1-6.89-6A6.47,6.47,0,0,1,986,1145.08Z" transform="translate(-68.29 -239.01)"/><path class="cls-8" d="M1002.8,1154.17c1.1.64.13,7.49-4.49,10.41-4.11,2.59-9.87,1.3-10.09.07-.16-.91,2.75-1.36,7.44-4.67C1000.6,1156.5,1002,1153.73,1002.8,1154.17Z" transform="translate(-68.29 -239.01)"/><path class="cls-14" d="M1033.44,1119.38c.28,1.28-8.23,4.92-17.2,6.38-14.55,2.36-28.3-1.34-28.21-3,0-.75,9.29-1.48,27.8-2.92C1030.7,1118.71,1033.29,1118.71,1033.44,1119.38Z" transform="translate(-68.29 -239.01)"/><path class="cls-6" d="M917.16,1132.46c-.41-.28-10.14-7.07-16.8-21.17-6.09-12.91-10.66-34.66,2.19-65l5.36,2.27c-9.59,22.63-10.41,42.8-2.42,60,6,12.79,14.88,19.08,15,19.14Z" transform="translate(-68.29 -239.01)"/><circle class="cls-9" cx="839.86" cy="802.07" r="13.54"/><path class="cls-14" d="M899.4,1037.77a7.27,7.27,0,1,0,6.74-7.76A7.27,7.27,0,0,0,899.4,1037.77Z" transform="translate(-68.29 -239.01)"/><path class="cls-9" d="M1035.65,1231.78c-9.29.91-17-2.85-22.76-8.11-10.42-9.42-14.83-23.66-11.85-24.27,4.64-1,16.57,5.55,29.2,4.32,14.52-1.43,23.92-7.36,31.34-8.5.33-.06.65-.1,1-.13C1070.13,1194.35,1064.16,1229,1035.65,1231.78Z" transform="translate(-68.29 -239.01)"/><path class="cls-10" d="M1035.65,1231.78c-9.29.91-17-2.85-22.76-8.11,12.39-3.49,36.59-12.08,48.69-28.45.33-.06.65-.1,1-.13C1070.13,1194.35,1064.16,1229,1035.65,1231.78Z" transform="translate(-68.29 -239.01)"/><ellipse class="cls-15" cx="990.89" cy="1258.58" rx="105.11" ry="27.25"/><line class="cls-16" x1="859.62" y1="772.96" x2="887.08" y2="800.92"/><line class="cls-16" x1="925.37" y1="740.53" x2="938.29" y2="777.53"/><line class="cls-16" x1="1073.84" y1="781.15" x2="1046.38" y2="809.11"/><line class="cls-16" x1="1008.65" y1="740.53" x2="995.72" y2="777.53"/></svg>