<svg xmlns="http://www.w3.org/2000/svg" width="57" height="40" viewBox="0 0 57 40"><g transform="translate(57 40) rotate(-180)" fill="none"><path d="M22.8,8A7,7,0,0,1,34.2,8L49.118,28.938A7,7,0,0,1,43.417,40H13.583a7,7,0,0,1-5.7-11.062Z" stroke="none"/><path d="M 28.49999809265137 8.063255310058594 C 27.18989753723145 8.063255310058594 26.00251770019531 8.675186157226562 25.24230766296387 9.742145538330078 L 10.32487869262695 30.67889595031738 C 9.438858032226562 31.92244720458984 9.327487945556641 33.47516632080078 10.0269775390625 34.83242797851562 C 10.72646713256836 36.1896858215332 12.05565643310547 36.99999618530273 13.58256912231445 36.99999618530273 L 43.41743850708008 36.99999618530273 C 44.9443473815918 36.99999618530273 46.27353668212891 36.189697265625 46.97301864624023 34.83242797851562 C 47.67250823974609 33.47516632080078 47.56113815307617 31.92244720458984 46.67511749267578 30.67889595031738 L 31.7576789855957 9.742156982421875 C 30.99746894836426 8.675186157226562 29.81008720397949 8.063255310058594 28.49999809265137 8.063255310058594 M 28.49999618530273 5.063255310058594 C 30.65267562866211 5.063255310058594 32.80535125732422 6.042610168457031 34.20093536376953 8.001327514648438 L 49.11837768554688 28.93807601928711 C 52.42003631591797 33.57198715209961 49.10725784301758 39.99999618530273 43.41743850708008 39.99999618530273 L 13.58256912231445 39.99999618530273 C 7.892749786376953 39.99999618530273 4.579959869384766 33.57198715209961 7.881618499755859 28.93807601928711 L 22.79904937744141 8.001327514648438 C 24.19463729858398 6.042610168457031 26.34731864929199 5.063255310058594 28.49999618530273 5.063255310058594 Z" stroke="none" fill="#fff"/></g></svg>